<svg width="75" height="98" viewBox="0 0 75 98" fill="none" xmlns="http://www.w3.org/2000/svg">
<g clip-path="url(#clip0_88_670)">
<path d="M37.4182 97.8338L36.3788 97.3349C21.4412 90.1542 14.2367 86.0679 8.26763 79.2851C3.19539 73.5239 0.172241 65.2384 0.172241 57.1311V12.063L2.38169 11.8908C14.4446 10.9286 25.8185 7.32338 36.1887 1.18799L37.4122 0.463379L38.6358 1.18799C48.8575 7.24023 60.5462 10.9464 72.4428 11.8908L74.6522 12.063V57.1311C74.6522 65.2384 71.6232 73.5298 66.5568 79.2851C60.5878 86.0679 53.3833 90.1542 38.4516 97.3349L37.4122 97.8338H37.4182Z" fill="#3CB17E"/>
<path d="M25.0999 38.8675L19.2436 55.4978C18.7982 56.7688 19.7366 58.0933 21.0849 58.0933C21.9223 58.0933 22.6647 57.5588 22.932 56.7629L24.2624 52.7894H32.3459L33.6823 56.7629C33.9496 57.5588 34.692 58.0933 35.5295 58.0933C36.8718 58.0933 37.8161 56.7629 37.3707 55.4978L31.5085 38.8675C31.0274 37.5074 29.7445 36.5986 28.3072 36.5986C26.8639 36.5986 25.581 37.5074 25.1058 38.8675H25.0999ZM25.3137 49.6653L28.2181 41.0057H28.3844L31.2947 49.6653H25.3137Z" fill="white"/>
<path d="M54.7909 49.6237C54.4405 48.9288 53.9654 48.3407 53.3714 47.8478C52.7715 47.3607 52.1004 46.9509 51.3461 46.6302C50.5918 46.3095 49.8137 46.0541 49 45.864L46.9866 45.3592C46.5471 45.2523 46.1075 45.1275 45.674 44.9731C45.2404 44.8187 44.8424 44.6286 44.4861 44.4029C44.1297 44.1772 43.8446 43.8981 43.6427 43.5714C43.4348 43.2448 43.3338 42.8528 43.3338 42.4073C43.3398 41.8668 43.5001 41.3917 43.8031 40.97C44.1119 40.5483 44.5574 40.2157 45.1335 39.9721C45.7155 39.7286 46.4104 39.6039 47.2241 39.6039C48.3764 39.6039 49.3208 39.8593 50.0454 40.3701C50.4611 40.6611 50.77 41.0175 50.9778 41.4451C51.2867 42.0747 51.8806 42.5142 52.5755 42.5142H52.8725C54.1792 42.5142 55.0048 41.1363 54.4108 39.9721C54.292 39.7405 54.1554 39.5148 54.001 39.2951C53.3417 38.3626 52.4389 37.632 51.2867 37.1034C50.1344 36.5748 48.7981 36.3135 47.2717 36.3135C45.7452 36.3135 44.4208 36.5748 43.2329 37.1034C42.045 37.632 41.1066 38.3744 40.4117 39.3247C39.7167 40.2751 39.3782 41.3857 39.3782 42.6508C39.3782 44.1891 39.889 45.4245 40.9165 46.3511C41.944 47.2776 43.3398 47.9666 45.1097 48.4239L47.5567 49.0535C48.3289 49.2495 49 49.4692 49.5761 49.7187C50.1523 49.9681 50.6037 50.277 50.9244 50.6452C51.2451 51.0135 51.4114 51.4768 51.4174 52.0351C51.4114 52.6528 51.2273 53.1873 50.8591 53.6446C50.4967 54.102 49.9919 54.4583 49.3504 54.7137C48.709 54.9691 47.9666 55.0998 47.1232 55.0998C46.2798 55.0998 45.5789 54.9751 44.9256 54.7315C44.2723 54.488 43.7437 54.1138 43.3338 53.6209C43.1616 53.4071 43.0191 53.1695 42.9062 52.9081C42.6092 52.2014 41.9143 51.75 41.1541 51.75C39.794 51.75 38.8318 53.1398 39.3723 54.3811C39.5267 54.7375 39.7108 55.0701 39.9246 55.3789C40.6136 56.3708 41.5698 57.1311 42.7993 57.6478C44.0287 58.1645 45.478 58.4258 47.1469 58.4258C48.8159 58.4258 50.3364 58.1586 51.548 57.624C52.7597 57.0895 53.6921 56.3411 54.3336 55.3908C54.9751 54.4346 55.3017 53.3298 55.3017 52.0707C55.3017 51.1382 55.1295 50.3304 54.7791 49.6355L54.7909 49.6237Z" fill="white"/>
</g>
<defs>
<clipPath id="clip0_88_670">
<rect width="74.8364" height="98" fill="white"/>
</clipPath>
</defs>
</svg>
