<svg width="98" height="98" viewBox="0 0 98 98" fill="none" xmlns="http://www.w3.org/2000/svg">
<g clip-path="url(#clip0_89_896)">
<path d="M48.9148 97.8602C46.3056 97.8657 43.7002 97.6622 41.1235 97.2515L41.8965 92.4489C48.1119 93.4514 54.4702 93.1068 60.5409 91.4385L61.8252 96.1376C57.618 97.2858 53.2759 97.8652 48.9148 97.8602Z" fill="black"/>
<path d="M80.293 18.5833C73.1692 11.2736 63.7174 6.67956 53.5684 5.59387C43.4194 4.50818 33.2097 6.99893 24.7009 12.6364L22.0043 8.57638C31.4589 2.31016 42.8043 -0.459034 54.0827 0.746699C65.361 1.95243 75.8646 7.05745 83.7808 15.1807L80.293 18.5833Z" fill="black"/>
<path d="M0.261738 51.0631C0.261738 50.4544 0.21913 49.797 0.21913 49.164C0.213165 41.1252 2.19992 33.2103 6.00167 26.1273C9.80342 19.0443 15.3016 13.0141 22.0043 8.57617L24.7009 12.6362C18.6673 16.6278 13.7176 22.0533 10.2949 28.4269C6.8723 34.8006 5.08351 41.9234 5.0887 49.1579C5.0887 49.7301 5.0887 50.2962 5.1313 50.8683L0.261738 51.0631Z" fill="black"/>
<path d="M41.1235 97.2272C30.0385 95.4141 19.919 89.8306 12.4742 81.4199C5.02949 73.0092 0.715772 62.2868 0.261719 51.0637L5.13128 50.875C5.53814 60.975 9.41848 70.625 16.1169 78.195C22.8153 85.7651 31.9212 90.7913 41.8965 92.4246L41.1235 97.2272Z" fill="black"/>
<path d="M61.8252 96.1134L60.5409 91.4142C66.1898 89.8608 71.4699 87.1905 76.069 83.5613C80.6681 79.9321 84.4929 75.4177 87.3173 70.2848C90.1416 65.152 91.9082 59.5049 92.5125 53.6776C93.1168 47.8503 92.5466 41.9609 90.8357 36.3577L95.4922 34.9395C97.3932 41.1656 98.0264 47.7097 97.3546 54.1849C96.6827 60.66 94.7194 66.9347 91.5806 72.6379C88.4418 78.3412 84.1914 83.3572 79.0806 87.3893C73.9697 91.4215 68.1023 94.388 61.8252 96.1134Z" fill="black"/>
<path d="M90.8356 36.3572C88.7852 29.6783 85.171 23.585 80.293 18.5833L83.7809 15.1807C89.1982 20.7433 93.2128 27.5163 95.4922 34.9389L90.8356 36.3572Z" fill="black"/>
<path d="M91.8765 37.7392C86.5675 34.4377 80.8197 31.9009 74.8026 30.2036L76.1235 25.5166C82.5797 27.3382 88.7474 30.0594 94.4452 33.6001L91.8765 37.7392Z" fill="black"/>
<path d="M4.58957 52.4996L0.80957 49.4561C5.34062 43.8507 10.6854 38.9553 16.6661 34.9326L19.3809 38.9561C13.8031 42.7083 8.81755 47.2732 4.58957 52.4996Z" fill="black"/>
<path d="M34.1782 31.5306L32.5469 26.941C41.0422 23.9189 50.0324 22.5311 59.0435 22.8506L58.8791 27.7201C58.1243 27.6958 57.3635 27.6836 56.5965 27.6836C48.9587 27.6744 41.376 28.9756 34.1782 31.5306Z" fill="black"/>
<path d="M28 23.9342L23.1304 23.575C23.6051 17.9337 24.6368 12.3532 26.2104 6.91504L30.873 8.31504C29.4017 13.4137 28.4393 18.6457 28 23.9342Z" fill="black"/>
<path d="M33.8678 66.9566C28.9458 59.1146 25.6024 50.387 24.0252 41.2636L28.8217 40.4297C30.2904 48.9349 33.4065 57.0714 37.9948 64.3819L33.8678 66.9566Z" fill="black"/>
<path d="M65.1305 94.348C56.9612 90.6447 49.5592 85.4417 43.3087 79.0088L46.7965 75.6123C52.6241 81.6107 59.5267 86.4609 67.1452 89.9106L65.1305 94.348Z" fill="black"/>
<path d="M44.0757 66.1956L39.3157 65.1304C42.3414 51.3805 49.3562 38.8288 59.4818 29.0469L62.8722 32.5469C53.4285 41.6664 46.8893 53.3725 44.0757 66.1956Z" fill="black"/>
<path d="M75.6122 22.8629L73.147 18.669C75.6991 17.1658 78.3418 15.822 81.06 14.6455L82.9896 19.1194C80.4543 20.2111 77.9903 21.4614 75.6122 22.8629Z" fill="black"/>
<path d="M39.127 95.322C38.2352 91.0179 37.736 86.6417 37.6357 82.2473L42.5052 82.1377C42.5993 86.2292 43.0638 90.3039 43.8931 94.3116L39.127 95.322Z" fill="black"/>
<path d="M25.1026 41.8357C30.6764 41.8357 35.1948 37.3173 35.1948 31.7435C35.1948 26.1698 30.6764 21.6514 25.1026 21.6514C19.5289 21.6514 15.0104 26.1698 15.0104 31.7435C15.0104 37.3173 19.5289 41.8357 25.1026 41.8357Z" fill="#DA291C"/>
<path d="M66.1409 35.657C71.7146 35.657 76.2331 31.1386 76.2331 25.5648C76.2331 19.9911 71.7146 15.4727 66.1409 15.4727C60.5671 15.4727 56.0487 19.9911 56.0487 25.5648C56.0487 31.1386 60.5671 35.657 66.1409 35.657Z" fill="#DA291C"/>
<path d="M38.9565 84.3533C44.5302 84.3533 49.0487 79.8349 49.0487 74.2611C49.0487 68.6874 44.5302 64.1689 38.9565 64.1689C33.3827 64.1689 28.8643 68.6874 28.8643 74.2611C28.8643 79.8349 33.3827 84.3533 38.9565 84.3533Z" fill="#DA291C"/>
</g>
<defs>
<clipPath id="clip0_89_896">
<rect width="98" height="98" fill="white"/>
</clipPath>
</defs>
</svg>
