<svg width="76" height="98" viewBox="0 0 76 98" fill="none" xmlns="http://www.w3.org/2000/svg">
<g clip-path="url(#clip0_88_675)">
<path d="M37.6463 97.9821L36.6006 97.4802C21.572 90.2556 14.3235 86.1444 8.31805 79.3203C3.21488 73.5239 0.173294 65.188 0.173294 57.0312V11.6943L2.39622 11.521C14.5327 10.5529 25.976 6.92576 36.4094 0.75295L37.6404 0.0239258L38.8713 0.75295C49.1554 6.8421 60.9154 10.5709 72.8845 11.521L75.1074 11.6943V57.0372C75.1074 65.1939 72.0599 73.5359 66.9627 79.3262C60.9572 86.1504 53.7088 90.2616 38.6861 97.4861L37.6404 97.9881L37.6463 97.9821Z" fill="#3CB17E"/>
<path d="M19.9585 57.049L25.7429 40.6281C26.215 39.2835 27.4818 38.3872 28.904 38.3872C30.3262 38.3872 31.593 39.2835 32.0651 40.6281L37.8555 57.049C38.2977 58.3039 37.3655 59.6126 36.0389 59.6126C35.2143 59.6126 34.4793 59.0867 34.2163 58.3039L32.8957 54.3779H24.9123L23.5977 58.2979C23.3347 59.0807 22.5998 59.6126 21.7751 59.6126C20.4485 59.6126 19.5163 58.2979 19.9585 57.049ZM31.856 51.2886L28.9877 42.7375H28.8204L25.9521 51.2886H31.8619H31.856Z" fill="white"/>
<path d="M46.299 55.095H46.5142L51.5815 39.7437C51.8504 38.931 52.6033 38.3872 53.4578 38.3872H53.4638C54.8262 38.3872 55.7823 39.7317 55.3282 41.0225L49.5617 57.3777C49.0896 58.7162 47.8228 59.6185 46.4006 59.6185C44.9784 59.6185 43.7116 58.7222 43.2395 57.3777L37.479 41.0225C37.0249 39.7377 37.981 38.3932 39.3434 38.3932C40.1979 38.3932 40.9509 38.937 41.2198 39.7496L46.2931 55.101L46.299 55.095Z" fill="white"/>
</g>
<defs>
<clipPath id="clip0_88_675">
<rect width="75.2927" height="98" fill="white"/>
</clipPath>
</defs>
</svg>
