<svg width="50" height="98" viewBox="0 0 50 98" fill="none" xmlns="http://www.w3.org/2000/svg">
<path d="M47.4555 98H2.76081C2.08596 98 1.43875 97.7321 0.961561 97.2553C0.484369 96.7785 0.216285 96.1318 0.216285 95.4575L0 18.0008C0 17.3265 0.268084 16.6798 0.745276 16.203C1.22247 15.7262 1.86968 15.4583 2.54453 15.4583H17.6845V2.54248C17.6845 1.86817 17.9526 1.22148 18.4297 0.744676C18.9069 0.267868 19.5542 0 20.229 0H47.4555C48.1303 0 48.7775 0.267868 49.2547 0.744676C49.7319 1.22148 50 1.86817 50 2.54248V95.4575C50 96.1318 49.7319 96.7785 49.2547 97.2553C48.7775 97.7321 48.1303 98 47.4555 98ZM5.29898 92.915H44.9109V5.08497H22.7735V17.9944C22.7735 18.6687 22.5055 19.3154 22.0283 19.7922C21.5511 20.269 20.9039 20.5369 20.229 20.5369H5.09542L5.29898 92.915Z" fill="black"/>
<path d="M39.0076 42.3574H28.0407V51.9235H39.0076V42.3574Z" fill="#E42216"/>
<path d="M39.1094 26.9819H27.9389V36.7451H39.1094V26.9819Z" fill="#E42216"/>
<path d="M39.1094 11.7014H27.9389V21.4646H39.1094V11.7014Z" fill="#E42216"/>
<path d="M39.1094 57.5425H27.9389V67.3056H39.1094V57.5425Z" fill="#E42216"/>
</svg>
