<svg width="200" height="100" viewBox="0 0 200 100" fill="none" xmlns="http://www.w3.org/2000/svg">
<g clip-path="url(#clip0_90_323)">
<path fill-rule="evenodd" clip-rule="evenodd" d="M90.8925 49.2444C89.9162 49.2527 88.9481 49.0666 88.0447 48.6972C87.1739 48.3376 86.3926 47.7919 85.7557 47.0983C85.0815 46.345 84.5629 45.4661 84.2297 44.5122C83.8387 43.3769 83.6496 42.1821 83.6709 40.9817C83.645 39.7774 83.8492 38.5792 84.2727 37.4513C84.6371 36.4899 85.1845 35.6081 85.8847 34.8545C86.5408 34.1664 87.3356 33.6251 88.2166 33.2663C89.0981 32.9125 90.0392 32.7304 90.9892 32.7298C91.5325 32.7224 92.0754 32.7618 92.6119 32.8478C93.044 32.9119 93.4712 33.0051 93.8907 33.1268C94.2561 33.2449 94.5785 33.3629 94.8364 33.4702C95.0416 33.5576 95.2393 33.6616 95.4274 33.7814L94.9224 35.1335C94.4704 34.8598 93.9915 34.6332 93.4931 34.4574C91.9271 33.9607 90.2372 34.0214 88.711 34.6291C87.9872 34.9467 87.3498 35.4324 86.8519 36.0456C86.3328 36.6781 85.9455 37.4077 85.7127 38.1917C85.4544 39.099 85.3277 40.0386 85.3366 40.9817C85.3264 41.9426 85.4531 42.9001 85.7127 43.8254C85.9276 44.6038 86.2927 45.3328 86.7874 45.9716C87.2773 46.56 87.8946 47.0296 88.5928 47.3451C89.3588 47.6753 90.1873 47.8364 91.0214 47.8172C91.8755 47.8385 92.7286 47.7447 93.5576 47.5382C94.0895 47.4017 94.6048 47.2074 95.0943 46.9588L95.5456 48.2894C95.3719 48.3959 95.1884 48.4858 94.9976 48.5577C94.7289 48.6542 94.4065 48.7508 94.0089 48.8581C93.5562 48.9752 93.0969 49.0648 92.6334 49.1264C92.0556 49.1943 91.4742 49.2266 90.8925 49.223V49.2444ZM96.8889 42.9884C96.8685 42.0667 97.0216 41.1495 97.3403 40.2842C97.5951 39.5699 97.9896 38.9134 98.5009 38.3527C98.9577 37.8513 99.5189 37.4557 100.145 37.1938C100.763 36.9438 101.424 36.8162 102.09 36.8182C102.737 36.7892 103.382 36.9009 103.982 37.1455C104.581 37.39 105.12 37.7617 105.561 38.2347C106.518 39.4809 106.977 41.0371 106.851 42.6021C106.851 42.7201 106.851 42.8382 106.851 42.9669V43.3103H98.4686C98.4331 44.5129 98.8125 45.6911 99.5433 46.6476C99.9619 47.0661 100.468 47.3869 101.025 47.5873C101.583 47.7876 102.177 47.8625 102.767 47.8065C103.416 47.8266 104.064 47.7507 104.691 47.5812C105.058 47.4788 105.417 47.3496 105.765 47.1949L106.034 48.4718C105.652 48.6556 105.253 48.7994 104.841 48.9011C104.165 49.084 103.467 49.1707 102.767 49.1586C101.86 49.1845 100.958 49.0276 100.113 48.6972C99.4182 48.4204 98.7994 47.9827 98.3075 47.4202C97.8091 46.8565 97.4421 46.1895 97.2328 45.4672C97.0104 44.6599 96.9019 43.8256 96.9104 42.9884H96.8889ZM105.314 42.0548C105.355 41.0242 105.052 40.0092 104.454 39.1682C104.175 38.8187 103.818 38.5395 103.411 38.3531C103.004 38.1667 102.559 38.0784 102.112 38.0952C101.618 38.0882 101.129 38.1946 100.682 38.4064C100.274 38.623 99.9092 38.9142 99.6078 39.2648C99.2811 39.6473 99.0296 40.0878 98.8663 40.5632C98.6905 41.0427 98.5856 41.5452 98.5546 42.0548H105.314ZM110.042 37.5586C110.483 37.4406 111.117 37.3011 111.826 37.1509C112.729 36.9781 113.648 36.899 114.567 36.9148C115.338 36.8888 116.107 37.024 116.823 37.3118C117.391 37.5339 117.889 37.9046 118.263 38.3849C118.644 38.8977 118.908 39.4873 119.037 40.1126C119.194 40.8388 119.269 41.5802 119.263 42.3231V48.9225H117.78V42.806C117.788 42.0869 117.731 41.3685 117.608 40.6598C117.519 40.1514 117.321 39.6681 117.028 39.2434C116.763 38.8713 116.387 38.5932 115.953 38.4493C115.427 38.2756 114.874 38.1957 114.319 38.2132C113.712 38.2086 113.105 38.248 112.503 38.3312C112.164 38.3674 111.83 38.4357 111.504 38.5351V48.9011H110.042V37.5586ZM124.357 37.1509H129.074V38.4064H124.357V44.6839C124.346 45.2326 124.404 45.7804 124.528 46.3149C124.61 46.676 124.78 47.0114 125.023 47.2914C125.233 47.5188 125.506 47.6793 125.807 47.7529C126.135 47.8292 126.47 47.8652 126.807 47.8602C127.32 47.8749 127.833 47.8023 128.322 47.6456C128.628 47.5346 128.926 47.402 129.214 47.2485L129.579 48.4826C129.237 48.6713 128.877 48.8258 128.505 48.944C127.943 49.1284 127.355 49.2191 126.764 49.2122C126.135 49.2295 125.509 49.1313 124.915 48.9225C124.445 48.7538 124.034 48.4517 123.733 48.0533C123.412 47.6261 123.195 47.1301 123.099 46.6047C122.97 45.9256 122.909 45.2355 122.917 44.5444V33.6204L124.4 33.3414V37.0972L124.357 37.1509ZM135.748 36.9148C136.212 36.914 136.676 36.9535 137.134 37.0328C137.442 37.0733 137.745 37.1489 138.037 37.2582L137.746 38.5459C137.507 38.4515 137.259 38.3831 137.005 38.342C136.514 38.2696 136.018 38.2373 135.522 38.2454C135.003 38.2325 134.483 38.2793 133.975 38.3849C133.713 38.4315 133.457 38.507 133.212 38.6102V48.9547H131.729V37.6445C132.239 37.4279 132.768 37.2555 133.308 37.1294C134.106 36.9338 134.926 36.8436 135.748 36.8611V36.9148ZM143.915 47.8816C144.495 47.8816 144.99 47.8816 145.441 47.8816C145.801 47.8497 146.16 47.7995 146.515 47.7314V43.4713C146.258 43.366 145.992 43.2834 145.72 43.2245C145.22 43.1362 144.713 43.0967 144.205 43.1064C143.824 43.1054 143.443 43.1305 143.066 43.1816C142.691 43.2373 142.329 43.3533 141.991 43.5249C141.665 43.6955 141.385 43.9421 141.175 44.2439C140.943 44.6045 140.83 45.0286 140.852 45.4565C140.848 45.8252 140.921 46.1907 141.067 46.5296C141.205 46.8245 141.42 47.0767 141.69 47.2592C141.98 47.4561 142.304 47.5946 142.647 47.667C143.065 47.748 143.489 47.7876 143.915 47.785V47.8816ZM143.775 36.8719C144.453 36.8522 145.129 36.9652 145.763 37.2045C146.266 37.4023 146.715 37.7146 147.074 38.1166C147.417 38.5185 147.667 38.9912 147.805 39.5009C147.959 40.0674 148.035 40.6523 148.031 41.2393V48.6864C147.88 48.6864 147.665 48.783 147.375 48.8367L146.365 49.0084C145.989 49.062 145.559 49.1157 145.097 49.1586C144.635 49.2015 144.151 49.2122 143.668 49.2122C143.085 49.2137 142.504 49.1453 141.938 49.0084C141.434 48.8657 140.966 48.6209 140.562 48.2894C140.201 47.9977 139.908 47.6316 139.702 47.2163C139.47 46.6779 139.357 46.0961 139.369 45.5101C139.355 44.9413 139.481 44.3778 139.735 43.8683C139.994 43.4067 140.363 43.0161 140.809 42.7309C141.291 42.4191 141.827 42.2006 142.389 42.087C143.041 41.9416 143.708 41.8696 144.377 41.8724C144.602 41.8571 144.829 41.8571 145.054 41.8724L145.742 41.9582L146.311 42.0763C146.426 42.0949 146.538 42.1273 146.644 42.1729V41.4432C146.643 41.0411 146.614 40.6395 146.558 40.2413C146.498 39.8592 146.359 39.4938 146.15 39.1682C145.931 38.846 145.631 38.5869 145.28 38.4171C144.818 38.2099 144.313 38.1143 143.807 38.1381C143.154 38.112 142.5 38.1733 141.862 38.3205C141.432 38.435 141.121 38.5316 140.927 38.6102L140.723 37.3118C141.107 37.1545 141.507 37.0394 141.916 36.9684C142.561 36.8525 143.216 36.7986 143.872 36.8075L143.775 36.8719ZM154.747 49.1157C154.304 49.1038 153.864 49.039 153.436 48.9225C153.086 48.8195 152.763 48.6399 152.49 48.3967C152.229 48.1391 152.034 47.8226 151.921 47.4739C151.779 47.0192 151.713 46.5442 151.727 46.0681V31.4528L153.21 31.1738V46.0252C153.205 46.3221 153.242 46.6182 153.318 46.9051C153.369 47.1068 153.477 47.2895 153.63 47.4309C153.781 47.5713 153.966 47.6709 154.167 47.7207L154.951 47.8816L154.747 49.1157ZM94.5677 73.7964C94.2668 73.0238 93.9874 72.2727 93.7295 71.5537C93.4716 70.8347 93.2352 70.1372 93.0095 69.4075H85.2292C84.9605 70.0943 84.7026 70.7918 84.4447 71.5537C84.1868 72.3156 83.9289 73.0131 83.6494 73.7857H82.016C82.6178 72.1403 83.1874 70.6058 83.7247 69.1822C84.262 67.755 84.7993 66.4137 85.3044 65.1367C85.8095 63.8597 86.379 62.6472 86.8411 61.4775C87.3032 60.3079 87.9157 59.1275 88.4423 57.9578H89.8071C90.3659 59.1275 90.8817 60.2971 91.3976 61.4775C91.9134 62.6579 92.4077 63.8705 92.9343 65.1367C93.4609 66.4029 94.0089 67.755 94.5032 69.1822C94.9976 70.6094 95.5779 72.1439 96.2549 73.7857L94.5677 73.7964ZM89.0763 59.7284C88.5068 61.0375 88.0017 62.3789 87.3999 63.731C86.7981 65.083 86.3253 66.5424 85.7127 68.1091H92.4829C91.8955 66.5424 91.3259 65.083 90.7743 63.731C90.2155 62.3682 89.6996 61.0375 89.0763 59.7284ZM101.016 72.7233C101.755 72.7566 102.492 72.6131 103.165 72.3048C103.432 72.1784 103.655 71.9747 103.804 71.7202C103.954 71.4656 104.023 71.1721 104.003 70.8777C104.013 70.5946 103.962 70.3128 103.853 70.0514C103.744 69.811 103.578 69.601 103.369 69.4397C103.088 69.2267 102.781 69.05 102.456 68.9139C102.09 68.7422 101.628 68.5491 101.08 68.313C100.532 68.0769 100.21 67.9482 99.8227 67.755C99.4376 67.5843 99.0763 67.3642 98.748 67.1004C98.444 66.8473 98.1921 66.5375 98.0065 66.1883C97.8324 65.7863 97.7586 65.3481 97.7916 64.9114C97.7782 64.4667 97.8682 64.0249 98.0547 63.6209C98.2412 63.2168 98.519 62.8615 98.8663 62.5828C99.7275 61.9468 100.784 61.6317 101.854 61.6921C102.526 61.6759 103.198 61.7444 103.853 61.896C104.221 61.9844 104.581 62.1066 104.927 62.2609L104.594 63.5915C104.291 63.4488 103.979 63.3269 103.659 63.2266C103.043 63.0418 102.4 62.962 101.757 62.9905C101.435 62.992 101.115 63.028 100.801 63.0979C100.522 63.1561 100.256 63.2653 100.016 63.4198C99.7884 63.5509 99.5993 63.7396 99.468 63.967C99.3205 64.2131 99.2459 64.4959 99.2531 64.7826C99.2463 65.0653 99.309 65.3453 99.4358 65.5981C99.5702 65.8405 99.7575 66.0495 99.9839 66.2098C100.25 66.4069 100.539 66.5725 100.844 66.7034L102.026 67.197L103.347 67.755C103.734 67.9366 104.095 68.1675 104.422 68.4418C104.743 68.7079 105.006 69.0365 105.196 69.4075C105.43 69.8424 105.549 70.3302 105.54 70.824C105.566 71.2961 105.469 71.767 105.258 72.1903C105.047 72.6136 104.729 72.9748 104.336 73.2384C103.338 73.8391 102.179 74.12 101.016 74.0432C99.8186 74.0991 98.6254 73.8711 97.5337 73.3779L97.9206 72.0366L98.2215 72.1761C98.4202 72.2682 98.6248 72.3471 98.834 72.4122C99.1382 72.4995 99.4467 72.5711 99.7582 72.6268C100.174 72.6912 100.595 72.7199 101.016 72.7126V72.7233ZM109.774 73.7964H108.323V61.9926H109.817V73.7964H109.774ZM110.118 58.4192C110.128 58.5663 110.108 58.714 110.059 58.853C110.009 58.992 109.932 59.1193 109.831 59.2271C109.73 59.3348 109.608 59.4206 109.472 59.4792C109.337 59.5378 109.191 59.5678 109.043 59.5674C108.9 59.5697 108.758 59.5433 108.625 59.4899C108.492 59.4364 108.371 59.357 108.269 59.2562C108.062 59.0289 107.947 58.7323 107.947 58.4246C107.947 58.1169 108.062 57.8203 108.269 57.593C108.42 57.4192 108.622 57.2982 108.846 57.2476C109.07 57.1971 109.305 57.2197 109.515 57.3122C109.726 57.4047 109.901 57.5621 110.015 57.7614C110.129 57.9606 110.177 58.1912 110.15 58.4192H110.118ZM117.339 72.7233C117.92 72.7233 118.414 72.7233 118.865 72.7233C119.226 72.6914 119.584 72.6412 119.94 72.5731V68.3452C119.68 68.2353 119.41 68.1526 119.134 68.0984C118.638 68.0047 118.134 67.9651 117.629 67.9803C117.245 67.9797 116.861 68.0048 116.479 68.0555C116.105 68.1101 115.742 68.2261 115.405 68.3988C115.077 68.5665 114.796 68.8137 114.588 69.1178C114.356 69.4784 114.244 69.9025 114.266 70.3304C114.262 70.6991 114.335 71.0646 114.481 71.4035C114.615 71.6977 114.827 71.9499 115.093 72.1332C115.387 72.3282 115.715 72.4665 116.06 72.5409C116.478 72.622 116.903 72.6615 117.328 72.659L117.339 72.7233ZM117.199 61.7136C117.874 61.6928 118.546 61.8059 119.177 62.0462C119.686 62.2373 120.14 62.5505 120.499 62.9583C120.842 63.3602 121.091 63.833 121.229 64.3426C121.384 64.9089 121.46 65.4939 121.455 66.081V73.5067C121.305 73.5067 121.09 73.6033 120.8 73.6569L119.789 73.8286C119.403 73.8286 118.983 73.9359 118.521 73.9681C118.059 74.0003 117.576 74.0325 117.092 74.0325C116.509 74.0346 115.928 73.9662 115.362 73.8286C114.864 73.7053 114.396 73.4826 113.986 73.174C113.595 72.8691 113.282 72.4756 113.073 72.0258C112.835 71.4932 112.721 70.9134 112.74 70.3304C112.721 69.7611 112.847 69.1964 113.105 68.6886C113.364 68.227 113.733 67.8363 114.18 67.5511C114.66 67.2355 115.196 67.0135 115.759 66.8965C116.413 66.7595 117.08 66.6912 117.748 66.6927H118.425C118.661 66.6927 118.887 66.6927 119.112 66.7892L119.682 66.9073C119.796 66.9258 119.908 66.9583 120.015 67.0038V66.2742C120.016 65.8716 119.983 65.4696 119.918 65.0723C119.869 64.6892 119.733 64.3223 119.521 63.9992C119.302 63.677 119.001 63.4179 118.65 63.2481C118.189 63.0372 117.685 62.938 117.178 62.9583C116.524 62.9347 115.87 62.9997 115.233 63.1515C114.803 63.266 114.491 63.3625 114.298 63.4412L114.083 62.1428C114.469 61.9819 114.873 61.8667 115.287 61.7994C115.932 61.6834 116.587 61.6295 117.242 61.6385L117.199 61.7136ZM96.4376 90.7188C96.4659 91.9307 96.2465 93.1356 95.7928 94.26C95.3954 95.2265 94.7815 96.0891 93.9982 96.7817C93.192 97.4686 92.2515 97.9802 91.2364 98.284C90.0975 98.6294 88.9125 98.7995 87.7223 98.7884C87.0474 98.7887 86.373 98.7529 85.702 98.6811C85.0685 98.6278 84.4399 98.5273 83.8214 98.3806V83.1107C84.4264 82.9472 85.0451 82.8395 85.6698 82.7888C86.3408 82.717 87.0152 82.6812 87.6901 82.6815C88.8803 82.6704 90.0652 82.8404 91.2041 83.1858C92.2192 83.4897 93.1598 84.0013 93.9659 84.6881C94.7493 85.3807 95.3632 86.2434 95.7606 87.2099C96.2114 88.3238 96.4308 89.5176 96.4053 90.7188H96.4376ZM85.4011 97.2861L86.0996 97.3719C86.6999 97.4239 87.3025 97.4454 87.905 97.4363C88.9202 97.4581 89.9313 97.3019 90.8925 96.9749C91.6991 96.6914 92.4331 96.2333 93.0417 95.6335C93.6367 95.029 94.0819 94.2941 94.3421 93.4874C94.6425 92.5847 94.7878 91.6377 94.7719 90.6866C94.7817 89.7719 94.6401 88.8619 94.3528 87.9932C94.0912 87.1871 93.6462 86.4525 93.0525 85.8471C92.4438 85.2473 91.7099 84.7892 90.9032 84.5057C89.9421 84.1787 88.9309 84.0225 87.9157 84.0443C87.3132 84.0352 86.7107 84.0567 86.1104 84.1087L85.4119 84.1945V97.2861H85.4011ZM101.209 98.6489H99.726V86.845H101.209V98.6489ZM101.553 83.2717C101.56 83.425 101.536 83.5782 101.483 83.722C101.429 83.8658 101.347 83.9974 101.241 84.1087C101.02 84.315 100.726 84.4253 100.424 84.4152C100.122 84.4052 99.8359 84.2756 99.6292 84.055C99.4226 83.8345 99.3122 83.541 99.3223 83.2391C99.3323 82.9372 99.4621 82.6518 99.683 82.4454C99.8929 82.2453 100.172 82.1337 100.462 82.1337C100.752 82.1337 101.031 82.2453 101.241 82.4454C101.349 82.5532 101.432 82.6826 101.486 82.8251C101.54 82.9675 101.563 83.1198 101.553 83.2717ZM107.463 97.6509C108.203 97.6837 108.94 97.5403 109.613 97.2324C109.88 97.106 110.102 96.9023 110.252 96.6477C110.401 96.3932 110.471 96.0996 110.451 95.8052C110.461 95.5222 110.41 95.2403 110.3 94.979C110.192 94.7386 110.026 94.5286 109.817 94.3673C109.536 94.1542 109.229 93.9776 108.903 93.8415C108.538 93.6698 108.076 93.4766 107.528 93.2406C106.98 93.0045 106.657 92.8757 106.27 92.6826C105.885 92.5082 105.524 92.2845 105.196 92.0173C104.887 91.7735 104.634 91.4661 104.454 91.1159C104.271 90.6976 104.197 90.2398 104.239 89.7853C104.226 89.3406 104.316 88.8988 104.502 88.4948C104.689 88.0907 104.967 87.7354 105.314 87.4567C106.175 86.8207 107.232 86.5056 108.302 86.566C108.974 86.5498 109.645 86.6183 110.3 86.7699C110.669 86.8584 111.029 86.9805 111.375 87.1348L111.042 88.4654C110.738 88.3246 110.426 88.2028 110.107 88.1005C109.487 87.9151 108.84 87.8353 108.194 87.8645C107.876 87.8612 107.558 87.8973 107.248 87.9718C106.969 88.0281 106.702 88.1374 106.464 88.2937C106.236 88.4248 106.047 88.6136 105.916 88.841C105.768 89.087 105.694 89.3698 105.701 89.6565C105.694 89.9392 105.757 90.2192 105.884 90.472C106.014 90.7139 106.198 90.9231 106.421 91.0837C106.692 91.279 106.984 91.4445 107.291 91.5773L108.473 92.0709C108.936 92.2533 109.365 92.4465 109.785 92.6289C110.171 92.8112 110.532 93.042 110.859 93.3157C111.18 93.5818 111.443 93.9104 111.633 94.2815C111.85 94.7135 111.953 95.1935 111.934 95.6765C111.961 96.1502 111.864 96.6228 111.653 97.048C111.442 97.4732 111.124 97.8363 110.73 98.1016C109.743 98.7021 108.596 98.9902 107.442 98.9279C106.248 98.9825 105.059 98.7545 103.971 98.2626L104.358 96.9105C104.453 96.9696 104.554 97.0199 104.659 97.0607C104.857 97.1529 105.062 97.2317 105.271 97.2968C105.575 97.3841 105.884 97.4557 106.195 97.5114C106.614 97.5895 107.038 97.6362 107.463 97.6509ZM116.136 86.9201H120.853V88.1005H116.136V94.4317C116.12 94.9806 116.178 95.5291 116.308 96.0628C116.392 96.423 116.561 96.7578 116.802 97.0393C117.011 97.2609 117.28 97.4174 117.576 97.4899C117.905 97.5747 118.245 97.6144 118.586 97.608C119.096 97.6236 119.605 97.551 120.09 97.3934C120.397 97.2821 120.695 97.1494 120.982 96.9963L121.358 98.2304C121.017 98.4199 120.657 98.5745 120.284 98.6918C119.722 98.8778 119.134 98.9685 118.543 98.9601C117.918 98.9774 117.295 98.8792 116.705 98.6703C116.235 98.495 115.823 98.1944 115.512 97.8011C115.199 97.3706 114.986 96.8757 114.889 96.3525C114.754 95.6742 114.693 94.9835 114.706 94.2922V83.3683L116.189 83.0893V86.8343L116.136 86.9201ZM127.527 86.6948C127.991 86.6945 128.455 86.734 128.913 86.8128C129.221 86.8562 129.524 86.9317 129.816 87.0382L129.515 88.3151C129.274 88.2281 129.026 88.1634 128.773 88.122C128.286 88.0495 127.794 88.0172 127.301 88.0254C126.782 88.0141 126.263 88.0573 125.754 88.1542C125.492 88.2079 125.237 88.287 124.991 88.3903V98.7347H123.497V87.3923C124.014 87.1932 124.545 87.0353 125.087 86.9201C125.889 86.7252 126.713 86.635 127.537 86.6519L127.527 86.6948ZM133.448 98.7347H131.965V86.9309H133.448V98.7347ZM133.792 83.3575C133.802 83.512 133.778 83.6668 133.722 83.8113C133.667 83.9558 133.58 84.0865 133.469 84.1945C133.368 84.2953 133.247 84.3747 133.114 84.4282C132.981 84.4816 132.839 84.508 132.696 84.5057C132.552 84.508 132.41 84.4816 132.277 84.4282C132.144 84.3747 132.024 84.2953 131.922 84.1945C131.714 83.9672 131.599 83.6706 131.599 83.3629C131.599 83.0552 131.714 82.7586 131.922 82.5313C132.024 82.4305 132.144 82.3511 132.277 82.2976C132.41 82.2442 132.552 82.2178 132.696 82.2201C132.839 82.2178 132.981 82.2442 133.114 82.2976C133.247 82.3511 133.368 82.4305 133.469 82.5313C133.579 82.6381 133.665 82.7671 133.72 82.9096C133.776 83.0521 133.8 83.2048 133.792 83.3575ZM138.778 87.6498C139.164 87.3884 139.584 87.1791 140.025 87.0275C140.671 86.7911 141.357 86.6782 142.045 86.6948C142.829 86.6772 143.608 86.8349 144.323 87.1562C144.975 87.4491 145.552 87.8857 146.01 88.4332C146.492 89.0083 146.857 89.6717 147.085 90.3862C147.329 91.1896 147.449 92.0255 147.44 92.865C147.455 93.7459 147.309 94.6222 147.01 95.4511C146.753 96.1722 146.35 96.8332 145.828 97.3934C145.302 97.8835 144.68 98.2598 144.001 98.4986C143.249 98.7948 142.445 98.9407 141.637 98.9279C140.762 98.939 139.888 98.8708 139.025 98.724C138.454 98.613 137.891 98.4661 137.338 98.284V81.2006L138.821 80.9217V87.5425L138.778 87.6498ZM138.778 97.3075C139.113 97.4069 139.454 97.4822 139.799 97.5329C140.387 97.6052 140.98 97.6375 141.572 97.6295C142.146 97.6552 142.718 97.5574 143.25 97.3426C143.782 97.1278 144.262 96.8011 144.656 96.3847C145.497 95.3911 145.918 94.1093 145.828 92.8113C145.827 92.1834 145.759 91.5574 145.624 90.9442C145.499 90.3992 145.273 89.8823 144.957 89.4204C144.65 88.9696 144.237 88.6011 143.754 88.3473C143.181 88.0727 142.551 87.9402 141.916 87.961C141.577 87.9597 141.239 87.9921 140.906 88.0576C140.602 88.1247 140.304 88.2144 140.014 88.3259C139.763 88.4167 139.522 88.5317 139.294 88.6693C139.115 88.7724 138.942 88.8871 138.778 89.0126V97.2753V97.3075ZM159.615 98.2948C159.175 98.4128 158.541 98.5523 157.831 98.7025C156.928 98.871 156.01 98.9501 155.091 98.9386C154.33 98.9583 153.573 98.8232 152.867 98.5416C152.303 98.3112 151.808 97.942 151.427 97.4685C151.045 96.9589 150.777 96.3734 150.642 95.7516C150.485 95.0004 150.42 94.2328 150.449 93.4659V86.8343H151.942V92.983C151.926 93.7029 151.987 94.4224 152.125 95.1292C152.21 95.6372 152.412 96.1185 152.716 96.5349C152.991 96.8942 153.364 97.1663 153.791 97.3183C154.303 97.4896 154.841 97.5695 155.381 97.5543C155.992 97.5585 156.603 97.5191 157.208 97.4363C157.544 97.4045 157.876 97.3361 158.197 97.2324V86.8343H159.68V98.2411L159.615 98.2948ZM164.859 86.888H169.566V88.1005H164.859V94.4317C164.844 94.9806 164.902 95.5291 165.031 96.0628C165.106 96.4244 165.272 96.7607 165.515 97.0393C165.726 97.2637 165.999 97.4205 166.299 97.4899C166.626 97.5753 166.962 97.615 167.299 97.608C167.813 97.6235 168.325 97.5509 168.814 97.3934C169.119 97.2779 169.416 97.1453 169.706 96.9963L170.071 98.2304C169.729 98.4191 169.369 98.5737 168.997 98.6918C168.435 98.8762 167.847 98.9669 167.256 98.9601C166.627 98.9766 166.001 98.8784 165.408 98.6703C164.939 98.4978 164.529 98.1965 164.225 97.8011C163.909 97.3714 163.692 96.8765 163.591 96.3525C163.462 95.6735 163.401 94.9833 163.409 94.2922V83.3683L164.902 83.0893V86.8343L164.859 86.888ZM173.704 98.6918H172.221V86.888H173.704V98.6918ZM174.091 83.2717C174.1 83.4262 174.077 83.581 174.021 83.7254C173.966 83.8699 173.879 84.0006 173.768 84.1087C173.667 84.2094 173.546 84.2889 173.413 84.3423C173.28 84.3957 173.138 84.4221 172.994 84.4199C172.851 84.4221 172.709 84.3957 172.576 84.3423C172.443 84.2889 172.322 84.2094 172.221 84.1087C172.013 83.8814 171.898 83.5848 171.898 83.2771C171.898 82.9694 172.013 82.6728 172.221 82.4454C172.322 82.3447 172.443 82.2652 172.576 82.2118C172.709 82.1584 172.851 82.132 172.994 82.1342C173.138 82.132 173.28 82.1584 173.413 82.2118C173.546 82.2652 173.667 82.3447 173.768 82.4454C173.878 82.5522 173.963 82.6812 174.019 82.8237C174.074 82.9663 174.099 83.119 174.091 83.2717ZM187.685 92.7577C187.695 93.619 187.557 94.4756 187.276 95.2901C187.052 96.0031 186.687 96.6637 186.202 97.2324C185.727 97.7641 185.145 98.1885 184.493 98.4772C183.814 98.7683 183.083 98.9184 182.344 98.9184C181.605 98.9184 180.874 98.7683 180.194 98.4772C179.508 98.2006 178.891 97.7755 178.389 97.2324C177.904 96.6637 177.538 96.0031 177.314 95.2901C176.784 93.6434 176.784 91.872 177.314 90.2252C177.541 89.5101 177.906 88.8464 178.389 88.2722C178.863 87.7343 179.445 87.3027 180.098 87.006C180.779 86.7215 181.509 86.575 182.247 86.575C182.985 86.575 183.716 86.7215 184.396 87.006C185.049 87.3027 185.631 87.7343 186.105 88.2722C186.588 88.8464 186.953 89.5101 187.18 90.2252C187.46 91.0398 187.598 91.8964 187.588 92.7577H187.685ZM186.105 92.7577C186.159 91.4931 185.78 90.2479 185.03 89.2273C184.689 88.8175 184.262 88.4878 183.78 88.2615C183.297 88.0351 182.77 87.9178 182.236 87.9178C181.703 87.9178 181.176 88.0351 180.693 88.2615C180.21 88.4878 179.783 88.8175 179.442 89.2273C178.769 90.2799 178.411 91.5031 178.411 92.7523C178.411 94.0016 178.769 95.2247 179.442 96.2774C179.785 96.6838 180.213 97.0105 180.696 97.2346C181.178 97.4587 181.704 97.5748 182.236 97.5748C182.769 97.5748 183.294 97.4587 183.777 97.2346C184.26 97.0105 184.687 96.6838 185.03 96.2774C185.781 95.2616 186.161 94.0192 186.105 92.7577ZM190.812 87.2528C191.252 87.124 191.887 86.9953 192.596 86.8343C193.5 86.6705 194.417 86.595 195.336 86.609C196.107 86.5853 196.874 86.7167 197.593 86.9953C198.16 87.2183 198.657 87.5888 199.033 88.0683C199.409 88.5797 199.673 89.1648 199.807 89.7853C199.963 90.5153 200.038 91.2601 200.032 92.0065V98.6059H198.549V92.4894C198.558 91.7703 198.5 91.0519 198.377 90.3433C198.289 89.8348 198.091 89.3516 197.797 88.9268C197.532 88.5548 197.156 88.2766 196.722 88.1327C196.196 87.959 195.643 87.8791 195.089 87.8966C194.482 87.889 193.875 87.9249 193.273 88.004C192.934 88.0461 192.6 88.1179 192.273 88.2186V98.5845H190.79L190.812 87.2528Z" fill="white"/>
<path fill-rule="evenodd" clip-rule="evenodd" d="M25.1249 31.7201C24.278 32.0911 23.4714 32.5478 22.7177 33.0829C19.0747 35.6798 17.7207 39.7253 17.8604 44.4683C17.9359 46.414 18.2022 48.3476 18.6556 50.2414C19.655 49.6834 20.7189 49.1684 21.8043 48.6318C25.1205 47.1309 28.5181 45.8162 31.9811 44.6936V31.7094C29.7008 31.4944 27.4052 31.4944 25.1249 31.7094V31.7201ZM31.9811 68.8057V54.8557C31.9826 54.7284 32.0268 54.6053 32.1067 54.506C32.1866 54.4068 32.2975 54.3372 32.4217 54.3084C35.9606 53.1772 39.4304 51.8407 42.8134 50.3058C43.9847 49.7586 45.1239 49.2327 46.177 48.5782C45.3444 45.4822 44.2664 42.4573 42.9531 39.5321C39.9547 32.9624 36.3194 26.7015 32.0993 20.8391C32.0338 20.7441 31.9965 20.6325 31.9918 20.5172V0.568731C31.9918 0.419735 32.0503 0.276679 32.1548 0.170324C32.2593 0.0639697 32.4015 0.00281124 32.5506 0C32.6833 0.00152781 32.8118 0.0467983 32.916 0.128769C36.2689 2.52173 39.9656 5.26881 43.6623 8.20903C47.1979 11.0312 50.7442 14.0358 54.0003 17.1156L54.14 17.2229C59.6994 22.5978 63.4027 29.5991 64.7144 37.2143C65.6457 42.7711 64.9555 48.4781 62.7263 53.6538C60.5204 58.7419 56.7289 62.9833 51.9155 65.7474C46.7573 68.6984 40.2235 70.1577 32.4969 69.3637C32.3563 69.3528 32.2249 69.2893 32.1293 69.1858C32.0336 69.0823 31.9807 68.9465 31.9811 68.8057ZM47.1871 48.0094C47.938 47.54 48.6561 47.0201 49.3364 46.4535C54.4947 42.1612 56.9663 37.7401 57.4069 33.0937C57.8475 28.4473 56.2678 23.5111 53.2911 18.0706C50.0672 14.9909 46.4886 11.9648 42.9316 9.13188C39.5787 6.43846 36.2151 3.906 33.1309 1.68473V20.3885C37.3511 26.2698 40.9862 32.5485 43.9847 39.1351C45.2887 42.0124 46.3666 44.9867 47.2086 48.0309L47.1871 48.0094ZM33.1309 55.3064V68.2906C35.4115 68.5002 37.7065 68.5002 39.9871 68.2906C40.8327 67.917 41.639 67.4605 42.3943 66.9278C46.0373 64.3309 47.3913 60.2854 47.2409 55.5424C47.1639 53.5975 46.9012 51.6644 46.4564 49.7693C45.457 50.3273 44.3931 50.8424 43.297 51.3789C39.9852 52.8815 36.5911 54.1963 33.1309 55.3171V55.3064ZM56.1066 21.0967C57.951 24.8546 58.7984 29.0224 58.5675 33.201C58.0947 38.1479 55.4941 42.7728 50.0994 47.3227C49.2751 47.9974 48.4023 48.6107 47.488 49.1576C47.9915 51.2369 48.2832 53.3617 48.3585 55.4995C48.5197 60.5859 47.0367 64.9533 43.0928 67.797C48.0366 66.8677 52.6031 64.5226 56.2356 61.0473C59.2312 58.1266 61.4477 54.5042 62.6834 50.5097C63.9728 46.3445 64.2926 41.9402 63.6183 37.6328C62.6386 31.5412 60.0409 25.8235 56.0959 21.0752L56.1066 21.0967ZM18.935 51.3896C19.7628 54.4871 20.8409 57.5124 22.1589 60.4357C25.1573 67.0054 28.7926 73.2663 33.0127 79.1287C33.0755 79.2243 33.1091 79.3362 33.1095 79.4506V99.4313C33.1066 99.5831 33.0443 99.7277 32.9357 99.8341C32.8272 99.9405 32.6812 100 32.5291 100C32.3968 99.9969 32.2688 99.9518 32.1638 99.8712C28.8217 97.4783 25.1249 94.7312 21.4174 91.791C17.71 88.8507 14.3356 85.9642 11.0795 82.8844C11.0267 82.8575 10.9794 82.8211 10.9398 82.7771C5.39192 77.3965 1.69698 70.3968 0.386867 62.7857C-0.541861 57.2173 0.151961 51.4997 2.38569 46.314C4.59745 41.2378 8.38836 37.0084 13.1965 34.2526C18.344 31.3016 24.8885 29.8423 32.6151 30.6256C32.7547 30.6415 32.8836 30.7083 32.9768 30.8133C33.07 30.9183 33.1211 31.054 33.1202 31.1943V45.0692C33.1187 45.1965 33.0745 45.3196 32.9946 45.4188C32.9147 45.5181 32.8038 45.5877 32.6796 45.6165C29.1377 46.7493 25.6644 48.0857 22.2771 49.6191C21.1058 50.1663 19.9667 50.6921 18.9243 51.3467L18.935 51.3896ZM17.9141 51.9906C17.1668 52.4652 16.449 52.9848 15.7649 53.5465C10.6174 57.8388 8.13497 62.2599 7.69437 66.9063C7.25377 71.5527 8.84423 76.4889 11.821 81.9294C15.0449 85.0091 18.6234 88.0352 22.1804 90.8681C25.5548 93.5508 28.9184 96.0618 32.0026 98.2831V79.633C27.7785 73.7542 24.1431 67.4751 21.1488 60.8864C19.8497 58.0071 18.7719 55.0332 17.9249 51.9906H17.9141ZM9.00543 78.9033C5.05363 74.1593 2.45505 68.4396 1.48299 62.3457C0.810533 58.0389 1.12654 53.6359 2.40718 49.4688C3.64364 45.4747 5.86005 41.8525 8.85498 38.9312C12.4874 35.4578 17.0543 33.1161 21.9977 32.1923C18.0431 35.0359 16.6246 39.4034 16.7213 44.4897C16.8128 46.6282 17.1152 48.7524 17.624 50.8316C16.718 51.3797 15.8558 51.9968 15.0449 52.6773C9.6717 57.2272 7.04959 61.8521 6.57675 66.799C6.32517 70.9756 7.16193 75.1459 9.00543 78.9033Z" fill="white"/>
</g>
<defs>
<clipPath id="clip0_90_323">
<rect width="200" height="100" fill="white"/>
</clipPath>
</defs>
</svg>
