<svg width="91" height="98" viewBox="0 0 91 98" fill="none" xmlns="http://www.w3.org/2000/svg">
<path d="M47.4064 98H2.73254C2.05839 98 1.41185 97.7321 0.935147 97.2553C0.458449 96.7785 0.190642 96.1318 0.190642 95.4575L0 18.0008C0 17.3265 0.267806 16.6798 0.744504 16.203C1.2212 15.7262 1.86775 15.4583 2.5419 15.4583H17.6853V2.54248C17.6853 1.86817 17.9531 1.22148 18.4298 0.744676C18.9065 0.267868 19.553 0 20.2272 0H47.4064C48.0806 0 48.7271 0.267868 49.2038 0.744676C49.6805 1.22148 49.9483 1.86817 49.9483 2.54248V95.4575C49.9483 96.1318 49.6805 96.7785 49.2038 97.2553C48.7271 97.7321 48.0806 98 47.4064 98ZM5.2935 92.915H44.8645V5.08497H22.7691V17.9944C22.7691 18.6687 22.5013 19.3154 22.0246 19.7922C21.5479 20.269 20.9013 20.5369 20.2272 20.5369H5.09015L5.2935 92.915Z" fill="black"/>
<path d="M88.4517 98H47.5144C46.8403 98 46.1938 97.7321 45.7171 97.2553C45.2404 96.7785 44.9725 96.1318 44.9725 95.4575L44.7565 18.0008C44.7565 17.3265 45.0243 16.6798 45.501 16.203C45.9777 15.7262 46.6242 15.4583 47.2984 15.4583H58.7369V2.54248C58.7369 1.86817 59.0047 1.22148 59.4814 0.744676C59.9581 0.267868 60.6047 0 61.2788 0H88.4581C89.1322 0 89.7788 0.267868 90.2555 0.744676C90.7322 1.22148 91 1.86817 91 2.54248V95.4575C91 95.7919 90.934 96.1231 90.8059 96.4319C90.6777 96.7408 90.4899 97.0214 90.2532 97.2576C90.0165 97.4937 89.7355 97.6809 89.4264 97.8083C89.1173 97.9357 88.7861 98.0008 88.4517 98ZM50.05 92.915H85.9098V5.08497H63.8144V17.9944C63.8144 18.6687 63.5466 19.3154 63.0699 19.7922C62.5932 20.269 61.9466 20.5369 61.2725 20.5369H49.8339L50.05 92.915Z" fill="black"/>
<path d="M39.9841 41.7219H29.0285V51.288H39.9841V41.7219Z" fill="#E42216"/>
<path d="M40.0858 26.3464H28.9268V36.1096H40.0858V26.3464Z" fill="#E42216"/>
<path d="M40.0858 11.0659H28.9268V20.8291H40.0858V11.0659Z" fill="#E42216"/>
<path d="M40.0858 56.907H28.9268V66.6701H40.0858V56.907Z" fill="#E42216"/>
<path d="M80.6545 41.7219H69.6989V51.288H80.6545V41.7219Z" fill="#E42216"/>
<path d="M80.7562 26.3464H69.5972V36.1096H80.7562V26.3464Z" fill="#E42216"/>
<path d="M80.7562 11.0659H69.5972V20.8291H80.7562V11.0659Z" fill="#E42216"/>
<path d="M80.7562 56.907H69.5972V66.6701H80.7562V56.907Z" fill="#E42216"/>
</svg>
