<svg width="108" height="98" viewBox="0 0 108 98" fill="none" xmlns="http://www.w3.org/2000/svg">
<path d="M101.113 3.8473H61.3603C61.3603 1.72247 59.6432 0 57.5249 0H50.9668C48.8476 0 47.1285 1.72151 47.1247 3.8473H7.37939C4.98514 3.81377 3.0178 5.7336 2.98438 8.1353C2.98438 8.14488 2.98438 8.15541 2.98438 8.16595V8.64495C3.00061 11.0419 4.95078 12.9722 7.34121 12.9559C7.35363 12.9559 7.36602 12.9559 7.37939 12.9559H101.113C103.503 12.9923 105.47 11.0792 105.507 8.68231C105.507 8.66986 105.508 8.6574 105.508 8.64495V8.16595C105.492 5.76426 103.538 3.83006 101.144 3.84635C101.133 3.84635 101.124 3.8473 101.113 3.8473Z" fill="#DA291C"/>
<path d="M60.5916 40.5951H47.6539C46.0065 40.5951 44.6694 39.2548 44.6694 37.6013V24.6607C44.6694 23.0072 46.0065 21.667 47.6539 21.667H60.5916C62.24 21.667 63.5761 23.0072 63.5761 24.6607V37.6013C63.5761 39.2548 62.24 40.5951 60.5916 40.5951ZM50.6383 34.6076H57.6072V27.6545H50.6383V34.6076Z" fill="black"/>
<path d="M54.2504 98.0003C44.5502 98.0003 35.4632 94.3475 29.0693 87.9414C27.3913 87.6224 25.6875 87.4624 23.9799 87.4624C20.2296 87.4174 16.5422 88.4252 13.3333 90.3737C11.9275 91.2378 10.09 90.7952 9.22957 89.3851C8.94211 88.9147 8.78931 88.3734 8.78931 87.8216V47.5629C8.79122 45.9103 10.1282 44.571 11.7766 44.572C12.279 44.573 12.7737 44.7004 13.2139 44.9437C16.4906 46.8444 20.1961 47.8742 23.9799 47.9374C25.6617 47.9336 27.3397 47.7813 28.9938 47.4814C30.265 46.0626 31.6918 44.7914 33.2466 43.6935C33.7508 43.341 34.3487 43.1503 34.9627 43.1475H73.5295C74.2152 43.1494 74.879 43.387 75.41 43.8209C76.8415 44.9533 78.2024 46.1728 79.4841 47.4738C81.0628 47.7746 82.6663 47.9298 84.2736 47.9374C88.0373 47.9432 91.7313 46.9267 94.966 44.9964C96.3928 44.1696 98.2179 44.6601 99.0421 46.0923C99.3028 46.5436 99.4403 47.0561 99.4422 47.5782V87.837C99.4432 89.4895 98.1081 90.8317 96.4597 90.8326C95.879 90.8326 95.3098 90.663 94.8237 90.344C91.6817 88.36 88.022 87.358 84.3108 87.4624C82.6834 87.4739 81.0609 87.631 79.4612 87.9337C73.0377 94.3475 63.92 98.0003 54.2504 98.0003ZM23.9799 81.4749C26.4086 81.4768 28.8305 81.7403 31.2028 82.2605C31.7911 82.3898 32.3269 82.6954 32.7394 83.1361C38.0293 88.7796 45.871 92.0129 54.2504 92.0129C62.6289 92.0129 70.4629 88.7796 75.7528 83.1361C76.1654 82.6954 76.7011 82.3898 77.2904 82.2605C79.5834 81.7527 81.9251 81.4893 84.2736 81.4749C87.4137 81.4443 90.5338 81.9635 93.4953 83.0087V52.2714C90.5519 53.3472 87.4442 53.9019 84.3108 53.9105C81.9634 53.9048 79.6226 53.6538 77.3277 53.1614C76.6897 53.0206 76.1157 52.6738 75.6936 52.1737C74.7128 51.0902 73.6441 50.0891 72.5 49.18H35.9407C34.8118 50.0718 33.7747 51.0749 32.8445 52.1737C32.4214 52.6776 31.8446 53.0273 31.2028 53.169C28.8286 53.6729 26.4076 53.9239 23.9799 53.9172C20.8312 53.9048 17.7083 53.3319 14.7582 52.2264V83.0767C17.714 81.9989 20.836 81.4567 23.9799 81.4749Z" fill="black"/>
<path d="M11.5272 96.7652H2.98445C1.33608 96.7652 0 95.425 0 93.7715V39.3756C0 37.7221 1.33608 36.3818 2.98445 36.3818H11.5272C13.1755 36.3818 14.5116 37.7221 14.5116 39.3756V93.7715C14.5116 95.425 13.1755 96.7652 11.5272 96.7652ZM5.96891 90.7777H8.54271V42.3693H5.96891V90.7777Z" fill="black"/>
<path d="M105.015 96.7652H96.4793C94.8319 96.7652 93.4949 95.425 93.4949 93.7715V39.3756C93.4949 37.7221 94.8319 36.3818 96.4793 36.3818H105.015C106.664 36.3818 108 37.7221 108 39.3756V93.7715C108 95.425 106.664 96.7652 105.015 96.7652ZM99.4638 90.7777H102.031V42.3693H99.4638V90.7777Z" fill="black"/>
<path d="M71.455 48.8578H36.7905C35.1431 48.8578 33.806 47.5176 33.806 45.8641V37.7135C33.806 36.06 35.1431 34.7197 36.7905 34.7197H71.455C73.1034 34.7197 74.4395 36.06 74.4395 37.7135V45.8641C74.4395 47.5176 73.1034 48.8578 71.455 48.8578ZM39.7749 42.8703H68.4706V40.7072H39.7749V42.8703Z" fill="black"/>
<path d="M69.3886 27.6542H38.8726C37.2243 27.6542 35.8882 26.314 35.8882 24.6605V15.6793C35.8882 14.0258 37.2243 12.6855 38.8726 12.6855H69.3886C71.0369 12.6855 72.373 14.0258 72.373 15.6793V24.6605C72.373 26.314 71.0369 27.6542 69.3886 27.6542ZM41.8647 21.6667H66.4041V18.673H41.8571L41.8647 21.6667Z" fill="black"/>
</svg>
