<svg width="133" height="98" viewBox="0 0 133 98" fill="none" xmlns="http://www.w3.org/2000/svg">
<g clip-path="url(#clip0_88_585)">
<path d="M60.3077 9.72443H42.2154V3.76905C42.2154 2.11059 40.8585 0.753662 39.2 0.753662H3.01538C1.35692 0.753662 0 2.11059 0 3.76905V94.4567C0 96.1152 1.35692 97.4721 3.01538 97.4721H39.2C40.8585 97.4721 42.2154 96.1152 42.2154 94.4567V88.5013H60.3077C61.9662 88.5013 63.3231 87.1444 63.3231 85.486V12.7398C63.3231 11.006 61.9662 9.72443 60.3077 9.72443ZM6.03077 91.366V6.70905H36.1846V11.8352C36.1092 12.0614 36.0338 12.3629 36.0338 12.589V85.4106C36.0338 85.7121 36.1092 85.9383 36.1846 86.1644V91.2906H6.03077V91.366ZM57.2923 82.4706H42.2154V15.7552H57.2923V82.4706Z" fill="black"/>
<path d="M30.1538 12.74H15.0769V18.8461H30.1538V12.74Z" fill="#E42216"/>
<path d="M30.1538 24.2737H15.0769V30.3045H30.1538V24.2737Z" fill="#E42216"/>
<path d="M30.1538 36.0337H15.0769V41.9891H30.1538V36.0337Z" fill="#E42216"/>
<path d="M30.1538 47.6431H15.0769V53.4477H30.1538V47.6431Z" fill="#E42216"/>
<path d="M54.2769 18.7708H45.2307V21.8615H54.2769V18.7708Z" fill="#E42216"/>
<path d="M54.2769 26.686H45.2307V29.7768H54.2769V26.686Z" fill="#E42216"/>
<path d="M54.2769 34.6013H45.2307V37.6921H54.2769V34.6013Z" fill="#E42216"/>
<path d="M54.2769 42.4414H45.2307V45.5322H54.2769V42.4414Z" fill="#E42216"/>
<path d="M129.662 0.527588H93.477C91.8185 0.527588 90.4616 1.88451 90.4616 3.54297V9.49836H72.3693C70.7108 9.49836 69.3539 10.8553 69.3539 12.5137V85.3353C69.3539 86.9937 70.7108 88.3507 72.3693 88.3507H90.4616V94.3061C90.4616 95.9645 91.8185 97.3214 93.477 97.3214H129.662C131.32 97.3214 132.677 95.9645 132.677 94.3061V3.54297C132.677 1.88451 131.32 0.527588 129.662 0.527588ZM75.3847 82.3199V15.5291H90.4616V82.3199H75.3847ZM126.646 91.2907H96.4923V86.1645C96.5677 85.9384 96.6431 85.6368 96.6431 85.4107V12.5137C96.6431 12.2122 96.5677 11.986 96.4923 11.7599V6.63374H126.646V91.2907Z" fill="black"/>
<path d="M117.6 12.5137H102.523V18.7706H117.6V12.5137Z" fill="#E42216"/>
<path d="M117.6 24.1982H102.523V30.3798H117.6V24.1982Z" fill="#E42216"/>
<path d="M117.6 35.8076H102.523V41.8384H117.6V35.8076Z" fill="#E42216"/>
<path d="M117.6 47.4922H102.523V53.4476H117.6V47.4922Z" fill="#E42216"/>
<path d="M87.4462 18.6953H78.4V21.7861H87.4462V18.6953Z" fill="#E42216"/>
<path d="M87.4462 26.6106H78.4V29.7014H87.4462V26.6106Z" fill="#E42216"/>
<path d="M87.4462 34.5261H78.4V37.6169H87.4462V34.5261Z" fill="#E42216"/>
<path d="M87.4462 42.4414H78.4V45.5322H87.4462V42.4414Z" fill="#E42216"/>
</g>
<defs>
<clipPath id="clip0_88_585">
<rect width="133" height="98" fill="white"/>
</clipPath>
</defs>
</svg>
