<svg width="165" height="98" viewBox="0 0 165 98" fill="none" xmlns="http://www.w3.org/2000/svg">
<g clip-path="url(#clip0_90_167)">
<path d="M42.3896 28.4009C38.3586 29.7397 34.8152 32.2437 32.2073 35.5962C29.5993 38.9488 28.0441 42.9993 27.7381 47.2358C27.4321 51.4722 28.3891 55.7042 30.4882 59.3967C32.5873 63.0892 35.7341 66.0764 39.5308 67.9806C43.3275 69.8848 47.6036 70.6204 51.8184 70.0945C56.0331 69.5686 59.9973 67.8047 63.2097 65.0259C66.422 62.2471 68.7383 58.5782 69.8656 54.4831C70.9929 50.388 70.8806 46.0506 69.543 42.0192C67.7467 36.6136 63.8774 32.1424 58.7856 29.5887C53.6938 27.035 47.7963 26.6078 42.3896 28.4009ZM50.4422 56.6175V51.6621L35.4186 51.5419V46.1334L50.4792 46.2258V41.2889L63.7369 49.0549L50.4422 56.6175Z" fill="#DA291C"/>
<path d="M107.439 43.6288C106.431 46.6014 106.327 49.8063 107.14 52.8382C107.953 55.8701 109.646 58.593 112.006 60.6627C114.366 62.7323 117.287 64.0558 120.399 64.4658C123.511 64.8758 126.675 64.354 129.49 62.9662C132.306 61.5785 134.647 59.3871 136.217 56.6692C137.788 53.9512 138.517 50.8287 138.313 47.6963C138.109 44.564 136.981 41.5624 135.072 39.071C133.162 36.5796 130.557 34.7103 127.585 33.6993C125.61 33.0276 123.523 32.7515 121.441 32.8871C119.36 33.0226 117.325 33.567 115.454 34.4891C113.583 35.4113 111.913 36.6931 110.537 38.2613C109.162 39.8296 108.109 41.6535 107.439 43.6288ZM111.646 48.8708L121.483 43.185V46.8831H132.577V50.8493H121.437V54.5474L111.646 48.8708Z" fill="#DA291C"/>
<path d="M93.8304 54.9256V42.9714C87.673 40.7526 83.8547 40.1979 81.8115 35.4643C79.7683 30.7307 82.2368 27.5318 84.9919 21.7073L76.514 13.2479C70.671 16.0214 67.3889 18.3235 62.72 16.419C58.0511 14.5145 57.3208 10.502 55.1851 4.46484H43.1662C41.0491 10.502 40.3926 14.4128 35.77 16.419C31.1474 18.4252 27.8191 16.003 21.9021 13.2479L13.4149 21.7073C16.1885 27.5318 18.62 30.703 16.5953 35.4643C14.5706 40.2256 10.6598 40.7526 4.57642 42.9714V54.9256C10.6228 57.1537 14.6538 57.7824 16.5953 62.442C18.5368 67.1016 16.17 70.4762 13.4149 76.1898L21.9021 84.6492C27.7359 81.8756 31.0272 79.5735 35.77 81.5798C40.5128 83.586 41.0768 87.4043 43.1662 93.5339H55.2128C57.3392 87.4043 57.9864 83.4843 62.7477 81.5798C67.5091 79.6752 70.597 81.9033 76.5417 84.6492L85.0566 76.1898C82.283 70.3745 79.9717 67.1941 81.8762 62.442C83.7808 57.6899 87.8302 57.1537 93.8304 54.9256Z" stroke="black" stroke-width="8" stroke-miterlimit="10"/>
<path d="M84.7608 70.5316C90.308 70.1341 97.7042 69.2095 100.829 72.1773C103.954 75.145 103.335 78.649 103.196 84.0574L112.793 87.6816C116.389 83.475 118.136 80.4888 122.583 80.3778C127.03 80.2669 128.787 83.0497 132.614 87.1084L142.072 82.8371C141.564 77.2899 140.686 73.9986 143.746 70.8182C146.806 67.6378 150.005 68.2942 155.617 68.3497L159.315 58.7254C155.108 55.1474 152.159 53.4925 151.974 49.0918C151.789 44.691 154.748 42.8605 158.695 38.9867L154.479 29.6305C148.877 30.065 145.706 30.9988 142.461 27.9848C139.216 24.9708 139.992 21.6333 140.103 16.1046L130.497 12.4805C126.901 16.6871 125.153 19.6733 120.827 19.8767C116.5 20.0801 114.503 17.1031 110.722 13.1831L101.254 17.4544C101.726 22.9184 102.604 26.2097 99.6642 29.4733C96.7242 32.7369 90.2248 31.951 84.6036 31.9048" stroke="black" stroke-width="8" stroke-miterlimit="10" stroke-linecap="round"/>
</g>
<defs>
<clipPath id="clip0_90_167">
<rect width="164.566" height="98" fill="white"/>
</clipPath>
</defs>
</svg>
