<svg width="76" height="98" viewBox="0 0 76 98" fill="none" xmlns="http://www.w3.org/2000/svg">
<g clip-path="url(#clip0_88_664)">
<path d="M37.8108 97.8119L36.7687 97.3117C21.7923 90.1123 14.569 86.0153 8.58437 79.2149C3.49892 73.4386 0.467896 65.1316 0.467896 57.0032V11.8237L2.6831 11.651C14.7774 10.6863 26.181 7.07171 36.5782 0.920341L37.8049 0.193848L39.0316 0.920341C49.2799 6.98834 60.9991 10.7042 72.9267 11.651L75.1419 11.8237V57.0092C75.1419 65.1376 72.1049 73.4506 67.0254 79.2208C61.0408 86.0213 53.8175 90.1182 38.847 97.3176L37.8049 97.8178L37.8108 97.8119Z" fill="#3CB17E"/>
<path d="M11.5558 58.3013V39.6983C11.5558 39.0433 12.0917 38.5073 12.7468 38.5073H18.8088C25.0614 38.5073 28.8487 42.4435 28.8487 48.9819C28.8487 55.5204 25.0555 59.4923 18.6659 59.4923H12.7468C12.0917 59.4923 11.5558 58.9563 11.5558 58.3013ZM18.4813 56.2052C22.8581 56.2052 25.0793 53.8054 25.0793 48.9819C25.0793 44.1585 22.8581 41.8004 18.5944 41.8004H15.355V56.2052H18.4813Z" fill="white"/>
<path d="M34.363 38.5073C35.411 38.5073 36.2626 39.3589 36.2626 40.4069V56.3064H43.9086C44.7899 56.3064 45.5045 57.021 45.5045 57.9023C45.5045 58.7836 44.7899 59.4982 43.9086 59.4982H33.6484C32.9933 59.4982 32.4574 58.9623 32.4574 58.3072V40.4129C32.4574 39.3648 33.3089 38.5133 34.357 38.5133L34.363 38.5073Z" fill="white"/>
<path d="M48.7975 39.6983C48.7975 39.0433 49.3334 38.5073 49.9885 38.5073H56.6698C61.4932 38.5073 64.0657 41.449 64.0657 45.4567C64.0657 49.4643 61.4635 52.406 56.6162 52.406H52.5967V57.5986C52.5967 58.6467 51.7451 59.4982 50.6971 59.4982C49.649 59.4982 48.7975 58.6467 48.7975 57.5986V39.7043V39.6983ZM56.1041 49.2737C58.9327 49.2737 60.1951 47.6838 60.1951 45.4507C60.1951 43.2176 58.9327 41.6813 56.0862 41.6813H52.6026V49.2737H56.1041Z" fill="white"/>
</g>
<defs>
<clipPath id="clip0_88_664">
<rect width="75.5417" height="98" fill="white"/>
</clipPath>
</defs>
</svg>
