<svg width="269.000000" height="31.000000" viewBox="0 0 269 31" fill="none" xmlns="http://www.w3.org/2000/svg" xmlns:xlink="http://www.w3.org/1999/xlink">
	<desc>
			Created with Pixso.
	</desc>
	<defs>
		<clipPath id="clip88_49">
			<rect id="Fortinet logo 1" width="269.000000" height="31.000000" fill="white" fill-opacity="0"/>
		</clipPath>
	</defs>
	<rect id="Fortinet logo 1" width="269.000000" height="31.000000" fill="#FFFFFF" fill-opacity="0"/>
	<g clip-path="url(#clip88_49)">
		<path id="Vector" d="M0 0.405807C0.226166 0.415245 0.453918 0.430977 0.680084 0.430977L33.5524 0.430977L33.5524 7.17708L7.48105 7.17708L7.48105 12.2842L29.9195 12.2842L29.9195 18.7991L7.46997 18.7991L7.46997 30.6524C7.34039 30.6774 7.20941 30.6947 7.07773 30.7043L0.256226 30.7043C0.170044 30.7002 0.0843506 30.6892 0 30.6713L0 0.405807Z" fill="#1D1D1B" fill-opacity="1.000000" fill-rule="evenodd"/>
		<path id="Vector" d="M64.636 0C64.6423 2.57009 64.6508 5.13914 64.6613 7.70714C64.6613 7.97138 64.549 8.09406 64.2864 8.07991C64.2153 8.07991 64.1457 8.07991 64.0761 8.07991C60.4589 8.07991 56.8418 8.0689 53.2262 8.07991C52.7264 8.07991 52.5761 7.94464 52.5793 7.4366C52.5983 4.95144 52.5793 2.46943 52.5698 -0.0157318L64.636 0Z" fill="#E42216" fill-opacity="1.000000" fill-rule="evenodd"/>
		<path id="Vector" d="M75.6535 0.0943756C76.4048 0.610283 77.2557 1.02867 77.8899 1.66726C79.5206 3.28733 80.2529 5.34782 80.4332 7.60805C80.4648 8.02801 80.3319 8.19946 79.8843 8.19788C76.1296 8.18739 72.3743 8.18739 68.6185 8.19788C68.1772 8.19788 68.019 8.05475 68.0238 7.59075C68.0475 5.29906 68.0349 3.00736 68.0317 0.714096C68.0317 0.50647 68.008 0.300423 67.9937 0.0943756L75.6535 0.0943756Z" fill="#E42216" fill-opacity="1.000000" fill-rule="evenodd"/>
		<path id="Vector" d="M49.2105 0C49.2105 2.46943 49.182 4.93729 49.2025 7.40514C49.2025 7.92262 49.076 8.09879 48.5383 8.09564C44.8152 8.07677 41.0904 8.09564 37.3657 8.08463C37.1285 8.08463 36.8912 8.13182 36.8501 7.74646C36.616 5.20782 38.7496 1.43133 41.0556 0.331879L41.7547 0L49.2105 0Z" fill="#E42216" fill-opacity="1.000000" fill-rule="evenodd"/>
		<path id="Vector" d="M117.457 17.3725C118.849 18.0536 119.463 19.26 119.498 20.6756C119.573 23.9236 119.54 27.1763 119.55 30.4275C119.544 30.5079 119.532 30.5878 119.515 30.6665L112.341 30.6665L112.341 30.1003C112.341 26.9703 112.341 23.8408 112.341 20.7118C112.341 19.4786 111.854 18.9564 110.633 18.8778C110.092 18.8416 109.551 18.818 109.01 18.8164C104.009 18.8164 99.0088 18.8164 94.0098 18.8164L93.3313 18.8164L93.3313 30.6713L85.9056 30.6713L85.9056 0.432541L86.524 0.432541C94.198 0.432541 101.874 0.421532 109.549 0.432541C111.172 0.432541 112.795 0.566238 114.373 1.00822C117.332 1.83871 119.245 3.69785 119.621 6.76183C119.847 8.81582 119.904 10.8848 119.79 12.948C119.721 14.4941 118.904 15.8169 117.815 16.9368C117.706 17.0501 117.593 17.1602 117.486 17.2734C117.473 17.3053 117.463 17.3386 117.457 17.3725ZM93.3534 12.2811C93.5416 12.2811 93.6966 12.3015 93.85 12.3015C98.9397 12.3015 104.028 12.3015 109.116 12.3015C109.779 12.3024 110.443 12.2677 111.102 12.1977C111.463 12.164 111.799 11.9989 112.044 11.7341C112.29 11.4694 112.429 11.1236 112.434 10.7633C112.461 10.0853 112.458 9.40585 112.434 8.72794C112.433 8.38449 112.31 8.0525 112.086 7.7906C111.863 7.52869 111.554 7.35374 111.213 7.29662C110.818 7.22536 110.417 7.19166 110.016 7.19595C104.646 7.18966 99.2771 7.18966 93.9102 7.19595C93.7267 7.19595 93.5416 7.21168 93.3534 7.22112L93.3534 12.2811Z" fill="#1D1D1B" fill-opacity="1.000000" fill-rule="evenodd"/>
		<path id="Vector" d="M207.537 30.6713L207.537 0.471863L237.429 0.471863L237.429 7.16763L214.97 7.16763L214.97 12.2984L230.57 12.2984L230.57 18.8054L214.969 18.8054L214.969 23.955L237.559 23.955L237.559 30.6713L207.537 30.6713Z" fill="#1D1D1B" fill-opacity="1.000000" fill-rule="evenodd"/>
		<path id="Vector" d="M175.753 7.18652L175.753 30.6713L168.319 30.6713L168.319 0.432541L168.892 0.432541C176.708 0.432541 184.524 0.432541 192.341 0.432541C194.132 0.415398 195.902 0.820747 197.506 1.61536C200.083 2.91613 201.402 5.14019 201.96 7.84398C202.203 9.05281 202.326 10.2824 202.328 11.5151C202.363 17.7233 202.343 23.9409 202.34 30.1412C202.34 30.3095 202.322 30.4778 202.311 30.6744L194.878 30.6744L194.878 29.888C194.878 23.4549 194.874 17.0207 194.866 10.5855C194.862 9.94416 194.785 9.3053 194.639 8.68076C194.43 7.77634 193.724 7.37369 192.867 7.20067C192.677 7.17152 192.484 7.16046 192.292 7.16764L176.29 7.16764C176.135 7.16292 175.982 7.17551 175.753 7.18652Z" fill="#1D1D1B" fill-opacity="1.000000" fill-rule="evenodd"/>
		<path id="Vector" d="M130.746 7.1928L123.754 7.1928L123.754 0.460854L151.582 0.460854L151.582 7.18022L138.197 7.18022L138.197 30.6713L130.746 30.6713L130.746 7.1928Z" fill="#1D1D1B" fill-opacity="1.000000" fill-rule="evenodd"/>
		<path id="Vector" d="M241.129 7.20067L241.129 0.471863L269 0.471863L269 7.17708L255.589 7.17708L255.589 30.6618L248.156 30.6618L248.156 7.20067L241.129 7.20067Z" fill="#1D1D1B" fill-opacity="1.000000" fill-rule="evenodd"/>
		<path id="Vector" d="M162.709 30.6713L155.315 30.6713L155.315 0.471863L162.703 0.471863L162.709 30.6713Z" fill="#1D1D1B" fill-opacity="1.000000" fill-rule="evenodd"/>
		<path id="Vector" d="M74.2032 19.5809C72.3353 19.5809 70.4658 19.5698 68.5963 19.5887C68.1756 19.5887 68.0222 19.477 68.0269 19.0335C68.0459 16.6878 68.0459 14.3431 68.0269 11.9995C68.0269 11.6126 68.1424 11.4868 68.5347 11.4868C72.34 11.5015 76.147 11.5015 79.9555 11.4868C80.2971 11.4868 80.43 11.6063 80.43 11.9366C80.4237 14.3337 80.4237 16.7303 80.43 19.1263C80.43 19.5006 80.2719 19.5887 79.9128 19.584C78.0149 19.5698 76.1075 19.584 74.2032 19.584L74.2032 19.5809Z" fill="#E42216" fill-opacity="1.000000" fill-rule="evenodd"/>
		<path id="Vector" d="M49.1646 11.4412L49.1646 19.4535C48.9716 19.4645 48.8024 19.4818 48.6316 19.4818C44.9084 19.4818 41.1853 19.4707 37.4622 19.4928C36.964 19.4928 36.8454 19.3355 36.8501 18.8636C36.8701 16.5494 36.8701 14.2372 36.8501 11.9272C36.8501 11.5214 36.9608 11.3861 37.3831 11.3877C41.16 11.4018 44.9353 11.3877 48.7107 11.3971C48.8514 11.405 48.989 11.4254 49.1646 11.4412Z" fill="#E42216" fill-opacity="1.000000" fill-rule="evenodd"/>
		<path id="Vector" d="M52.6157 30.9371L52.6157 22.9877C52.8118 22.9751 52.9969 22.9531 53.1819 22.9531C56.8196 22.9531 60.4573 22.9531 64.0951 22.9421C64.5695 22.9421 64.6803 23.0994 64.6771 23.5382C64.6613 25.8331 64.6676 28.1295 64.6771 30.4243C64.6771 30.7389 64.6771 30.978 64.22 30.9764C60.4447 30.9607 56.6662 30.967 52.8877 30.967C52.815 30.967 52.7454 30.9512 52.6157 30.9371Z" fill="#E42216" fill-opacity="1.000000" fill-rule="evenodd"/>
		<path id="Vector" d="M68.0634 30.9748L68.0634 22.994C68.2405 22.9783 68.4081 22.9531 68.5758 22.9531C72.3322 22.9531 76.0916 22.9626 79.8512 22.9453C80.3257 22.9453 80.4838 23.0884 80.4348 23.5398C80.1501 26.4292 79.1489 28.9285 76.5819 30.58C76.1401 30.8614 75.6228 31.0029 75.0984 30.9858C72.9474 30.9607 70.7964 30.9748 68.6486 30.9748L68.0634 30.9748Z" fill="#E42216" fill-opacity="1.000000" fill-rule="evenodd"/>
		<path id="Vector" d="M49.163 22.994L49.163 30.9418C48.9764 30.9512 48.7913 30.967 48.6078 30.967C46.6324 30.967 44.6538 30.8931 42.6831 30.9937C41.315 31.0629 40.3202 30.481 39.444 29.597C38.0205 28.1641 37.2851 26.3852 36.964 24.4206C36.8896 23.9661 36.8723 23.5021 36.8248 22.994L49.163 22.994Z" fill="#E42216" fill-opacity="1.000000" fill-rule="evenodd"/>
	</g>
</svg>
