<svg width="270" height="31" viewBox="0 0 270 31" fill="none" xmlns="http://www.w3.org/2000/svg">
<g clip-path="url(#clip0_90_305)">
<path fill-rule="evenodd" clip-rule="evenodd" d="M0 0.40625C0.227012 0.415687 0.455612 0.431416 0.682624 0.431416H33.6772V7.17752H7.50886V12.2847H30.0307V18.7996H7.49775V30.6528C7.36767 30.6778 7.2362 30.6952 7.10405 30.7047H0.257175C0.170688 30.7007 0.0846794 30.6896 0 30.6717L0 0.40625Z" fill="white"/>
<path fill-rule="evenodd" clip-rule="evenodd" d="M64.8763 0.000103854C64.8826 2.5702 64.8911 5.13924 64.9017 7.70724C64.9017 7.97149 64.789 8.09417 64.5254 8.08002C64.454 8.08002 64.3842 8.08002 64.3143 8.08002C60.6837 8.08002 57.0531 8.06901 53.4241 8.08002C52.9224 8.08002 52.7716 7.94475 52.7748 7.43671C52.7938 4.95155 52.7748 2.46953 52.7653 -0.015625L64.8763 0.000103854Z" fill="#E42216"/>
<path fill-rule="evenodd" clip-rule="evenodd" d="M75.9348 0.09375C76.6888 0.609656 77.5429 1.02804 78.1795 1.66664C79.8162 3.28671 80.5512 5.34719 80.7322 7.60742C80.7639 8.02738 80.6306 8.19883 80.1813 8.19726C76.4126 8.18677 72.6434 8.18677 68.8736 8.19726C68.4307 8.19726 68.2719 8.05412 68.2767 7.59012C68.3005 5.29843 68.2878 3.00673 68.2846 0.713467C68.2846 0.505846 68.2608 0.299798 68.2465 0.09375H75.9348Z" fill="#E42216"/>
<path fill-rule="evenodd" clip-rule="evenodd" d="M49.3934 0C49.3934 2.46943 49.3648 4.93729 49.3855 7.40515C49.3855 7.92262 49.2585 8.09879 48.7187 8.09564C44.9818 8.07677 41.2432 8.09564 37.5046 8.08463C37.2665 8.08463 37.0284 8.13182 36.9871 7.74646C36.7522 5.20782 38.8937 1.43133 41.2083 0.331879L41.9099 0H49.3934Z" fill="#E42216"/>
<path fill-rule="evenodd" clip-rule="evenodd" d="M117.894 17.3726C119.291 18.0537 119.907 19.2601 119.942 20.6757C120.018 23.9237 119.985 27.1764 119.994 30.4276C119.988 30.508 119.977 30.5879 119.959 30.6666H112.758V30.1004C112.758 26.9704 112.758 23.8408 112.758 20.7118C112.758 19.4787 112.269 18.9565 111.044 18.8779C110.501 18.8417 109.958 18.8181 109.415 18.8165C104.395 18.8165 99.3768 18.8165 94.3593 18.8165H93.6782V30.6714H86.2249V0.432628H86.8456C94.5482 0.432628 102.252 0.421618 109.956 0.432628C111.585 0.432628 113.214 0.566323 114.798 1.0083C117.768 1.83879 119.688 3.69794 120.066 6.76192C120.293 8.8159 120.35 10.8849 120.235 12.9481C120.166 14.4942 119.346 15.817 118.253 16.9369C118.143 17.0502 118.03 17.1603 117.922 17.2735C117.909 17.3054 117.9 17.3386 117.894 17.3726ZM93.7004 12.2812C93.8893 12.2812 94.0449 12.3016 94.1989 12.3016C99.3075 12.3016 104.415 12.3016 109.521 12.3016C110.187 12.3025 110.853 12.2678 111.515 12.1978C111.877 12.1641 112.214 11.999 112.461 11.7342C112.708 11.4694 112.847 11.1237 112.852 10.7633C112.879 10.0854 112.876 9.40594 112.852 8.72803C112.851 8.38458 112.727 8.05258 112.503 7.79068C112.279 7.52878 111.968 7.35382 111.626 7.2967C111.23 7.22545 110.828 7.19174 110.425 7.19604C105.035 7.18974 99.6461 7.18974 94.2592 7.19604C94.0751 7.19604 93.8893 7.21177 93.7004 7.2212V12.2812Z" fill="white"/>
<path fill-rule="evenodd" clip-rule="evenodd" d="M208.308 30.6721V0.472656H238.312V7.16843H215.769V12.2992H231.427V18.8062H215.768V23.9558H238.442V30.6721H208.308Z" fill="white"/>
<path fill-rule="evenodd" clip-rule="evenodd" d="M176.406 7.18613V30.6709H168.945V0.432163H169.519C177.365 0.432163 185.21 0.432163 193.056 0.432163C194.854 0.415018 196.631 0.820363 198.24 1.61497C200.826 2.91575 202.15 5.13981 202.711 7.8436C202.955 9.05243 203.078 10.282 203.081 11.5147C203.116 17.7229 203.095 23.9405 203.092 30.1408C203.092 30.3091 203.074 30.4774 203.063 30.674H195.602V29.8876C195.602 23.4545 195.598 17.0203 195.591 10.5851C195.586 9.94378 195.51 9.30492 195.362 8.68037C195.153 7.77596 194.445 7.37331 193.584 7.20029C193.393 7.17114 193.2 7.16008 193.006 7.16726H176.946C176.79 7.16254 176.636 7.17512 176.406 7.18613Z" fill="white"/>
<path fill-rule="evenodd" clip-rule="evenodd" d="M131.232 7.19289H124.214V0.460938H152.146V7.18031H138.711V30.6714H131.232V7.19289Z" fill="white"/>
<path fill-rule="evenodd" clip-rule="evenodd" d="M242.025 7.20146V0.472656H270V7.17787H256.54V30.6626H249.078V7.20146H242.025Z" fill="white"/>
<path fill-rule="evenodd" clip-rule="evenodd" d="M163.314 30.6721H155.892V0.472656H163.307L163.314 30.6721Z" fill="white"/>
<path fill-rule="evenodd" clip-rule="evenodd" d="M74.479 19.5804C72.6042 19.5804 70.7278 19.5694 68.8514 19.5883C68.4291 19.5883 68.2751 19.4766 68.2799 19.033C68.2989 16.6873 68.2989 14.3427 68.2799 11.9991C68.2799 11.6122 68.3958 11.4863 68.7895 11.4863C72.609 11.501 76.4301 11.501 80.2528 11.4863C80.5957 11.4863 80.729 11.6059 80.729 11.9362C80.7227 14.3333 80.7227 16.7298 80.729 19.1258C80.729 19.5002 80.5703 19.5883 80.2099 19.5835C78.3049 19.5694 76.3904 19.5835 74.479 19.5835V19.5804Z" fill="#E42216"/>
<path fill-rule="evenodd" clip-rule="evenodd" d="M49.3474 11.4422V19.4544C49.1537 19.4655 48.9838 19.4828 48.8124 19.4828C45.0754 19.4828 41.3384 19.4717 37.6015 19.4938C37.1014 19.4938 36.9823 19.3365 36.9871 18.8646C37.0072 16.5504 37.0072 14.2382 36.9871 11.9282C36.9871 11.5224 37.0982 11.3871 37.5221 11.3887C41.313 11.4028 45.1024 11.3887 48.8918 11.3981C49.033 11.406 49.1711 11.4264 49.3474 11.4422Z" fill="#E42216"/>
<path fill-rule="evenodd" clip-rule="evenodd" d="M52.8113 30.9364V22.987C53.0081 22.9744 53.1939 22.9524 53.3796 22.9524C57.0308 22.9524 60.6821 22.9524 64.3333 22.9414C64.8096 22.9414 64.9207 23.0987 64.9175 23.5375C64.9017 25.8324 64.908 28.1288 64.9175 30.4236C64.9175 30.7382 64.9175 30.9773 64.4587 30.9757C60.6694 30.96 56.8769 30.9663 53.0843 30.9663C53.0113 30.9663 52.9415 30.9505 52.8113 30.9364Z" fill="#E42216"/>
<path fill-rule="evenodd" clip-rule="evenodd" d="M68.3163 30.9749V22.9941C68.4941 22.9783 68.6624 22.9532 68.8307 22.9532C72.601 22.9532 76.3745 22.9626 80.148 22.9453C80.6242 22.9453 80.783 23.0884 80.7338 23.5399C80.448 26.4293 79.4431 28.9286 76.8666 30.5801C76.4231 30.8615 75.9039 31.003 75.3775 30.9859C73.2185 30.9607 71.0595 30.9749 68.9037 30.9749H68.3163Z" fill="#E42216"/>
<path fill-rule="evenodd" clip-rule="evenodd" d="M49.3458 22.9941V30.9419C49.1584 30.9514 48.9727 30.9671 48.7886 30.9671C46.8058 30.9671 44.8198 30.8932 42.8418 30.9938C41.4686 31.063 40.4701 30.4811 39.5906 29.5971C38.1618 28.1642 37.4237 26.3853 37.1014 24.4207C37.0268 23.9662 37.0093 23.5022 36.9617 22.9941H49.3458Z" fill="#E42216"/>
</g>
<defs>
<clipPath id="clip0_90_305">
<rect width="270" height="31" fill="white"/>
</clipPath>
</defs>
</svg>
