<svg width="500" height="355" viewBox="0 0 500 355" fill="none" xmlns="http://www.w3.org/2000/svg">
<g opacity="0.1">
<path fill-rule="evenodd" clip-rule="evenodd" d="M318.804 0.180033C318.876 29.5974 318.973 59.0028 319.094 88.3962C319.094 91.4208 317.806 92.825 314.797 92.663C313.981 92.663 313.183 92.663 312.385 92.663C270.922 92.663 229.458 92.537 188.012 92.663C182.283 92.663 180.56 91.1147 180.597 85.2996C180.814 56.8544 180.597 28.4452 180.488 0L318.804 0.180033Z" fill="white"/>
<path fill-rule="evenodd" clip-rule="evenodd" d="M445.097 1.25195C453.709 7.15704 463.463 11.9459 470.733 19.2553C489.426 37.7987 497.82 61.383 499.887 87.2537C500.249 92.0606 498.726 94.023 493.596 94.005C450.554 93.8849 407.507 93.8849 364.454 94.005C359.396 94.005 357.583 92.3667 357.637 87.0557C357.909 60.8249 357.764 34.5941 357.728 8.34525C357.728 5.96882 357.456 3.61039 357.292 1.25195H445.097Z" fill="white"/>
<path fill-rule="evenodd" clip-rule="evenodd" d="M141.98 0.177734C141.98 28.4429 141.653 56.6901 141.889 84.9373C141.889 90.8604 140.438 92.8767 134.274 92.8407C91.5956 92.6247 48.8989 92.8407 6.20216 92.7147C3.48262 92.7147 0.763096 93.2548 0.291709 88.844C-2.39157 59.7867 22.0661 16.5607 48.5 3.97643L56.5136 0.177734H141.98Z" fill="white"/>
<path fill-rule="evenodd" clip-rule="evenodd" d="M428.473 224.297C407.061 224.297 385.631 224.171 364.201 224.387C359.379 224.387 357.62 223.109 357.674 218.032C357.892 191.183 357.892 164.346 357.674 137.521C357.674 133.093 358.998 131.652 363.494 131.652C407.116 131.82 450.755 131.82 494.413 131.652C498.329 131.652 499.852 133.021 499.852 136.801C499.779 164.238 499.779 191.669 499.852 219.094C499.852 223.379 498.039 224.387 493.923 224.333C472.167 224.171 450.302 224.333 428.473 224.333V224.297Z" fill="white"/>
<path fill-rule="evenodd" clip-rule="evenodd" d="M141.455 131.145V222.854C139.243 222.98 137.303 223.178 135.345 223.178C92.6661 223.178 49.9875 223.052 7.30896 223.304C1.59793 223.304 0.238174 221.504 0.292564 216.103C0.522214 189.614 0.522214 163.149 0.292564 136.708C0.292564 132.064 1.56167 130.515 6.40245 130.533C49.6975 130.695 92.9744 130.533 136.251 130.641C137.865 130.731 139.442 130.965 141.455 131.145Z" fill="white"/>
<path fill-rule="evenodd" clip-rule="evenodd" d="M181.014 354.276V263.288C183.262 263.144 185.384 262.892 187.505 262.892C229.204 262.892 270.904 262.892 312.603 262.766C318.042 262.766 319.312 264.566 319.275 269.589C319.094 295.856 319.167 322.141 319.275 348.407C319.275 352.008 319.275 354.744 314.036 354.727C270.759 354.546 227.446 354.618 184.133 354.618C183.299 354.618 182.501 354.438 181.014 354.276Z" fill="white"/>
<path fill-rule="evenodd" clip-rule="evenodd" d="M358.087 354.717V263.369C360.118 263.189 362.04 262.901 363.962 262.901C407.021 262.901 450.117 263.009 493.212 262.811C498.651 262.811 500.464 264.449 499.902 269.616C496.639 302.688 485.162 331.295 455.737 350.199C450.672 353.419 444.742 355.039 438.731 354.843C414.074 354.555 389.416 354.717 364.796 354.717H358.087Z" fill="white"/>
<path fill-rule="evenodd" clip-rule="evenodd" d="M141.434 263.371V354.342C139.295 354.45 137.173 354.63 135.07 354.63C112.426 354.63 89.7447 353.784 67.1544 354.936C51.4717 355.728 40.0678 349.067 30.0237 338.949C13.7065 322.548 5.27591 302.186 1.59547 279.7C0.743349 274.497 0.543907 269.186 0 263.371H141.434Z" fill="white"/>
</g>
</svg>
