<svg width="95" height="98" viewBox="0 0 95 98" fill="none" xmlns="http://www.w3.org/2000/svg">
<g clip-path="url(#clip0_89_865)">
<path d="M2.09436 67.0988V97.3919H18.7465V55.8525H2.09436V58.5713V67.0988Z" fill="#DA291C"/>
<path d="M2.61593 52.7776C1.3277 52.7776 0.276572 51.7581 0.244959 50.4699C0.221249 49.8455 0.450442 49.2291 0.877216 48.7707L30.8779 16.6204C31.3125 16.1541 31.9132 15.8854 32.5454 15.8617C33.1856 15.8617 33.7942 16.1146 34.2446 16.5572L56.2867 37.6272L84.2878 8.0849L79.4748 3.36667L94.5858 0.774414L92.278 15.9328L87.6625 11.4043L58.0966 42.5983C57.6619 43.0567 57.0612 43.3254 56.429 43.3333C55.7967 43.3333 55.1961 43.1041 54.7298 42.6773L32.6956 21.6152L4.33883 52.011C3.89625 52.4931 3.26399 52.7618 2.60802 52.7618L2.61593 52.7776Z" fill="black"/>
<path d="M43.531 47.6641H26.8789V97.3912H43.531V47.6641Z" fill="#DA291C"/>
<path d="M68.3154 64.8779H51.6633V97.3918H68.3154V64.8779Z" fill="#DA291C"/>
<path d="M93.1 41.2705H76.4479V97.3913H93.1V41.2705Z" fill="#DA291C"/>
</g>
<defs>
<clipPath id="clip0_89_865">
<rect width="94.8387" height="98" fill="white"/>
</clipPath>
</defs>
</svg>
