<svg width="115" height="98" viewBox="0 0 115 98" fill="none" xmlns="http://www.w3.org/2000/svg">
<g clip-path="url(#clip0_88_612)">
<path d="M45.3232 71.5328C46.7494 71.5328 47.9055 70.3767 47.9055 68.9505C47.9055 67.5243 46.7494 66.3682 45.3232 66.3682C43.897 66.3682 42.7408 67.5243 42.7408 68.9505C42.7408 70.3767 43.897 71.5328 45.3232 71.5328Z" fill="#DA291C"/>
<path d="M71.9907 66.3611C71.4782 66.3597 70.9769 66.5103 70.5501 66.794C70.1233 67.0777 69.7903 67.4816 69.5932 67.9547C69.3961 68.4277 69.3438 68.9486 69.4429 69.4514C69.542 69.9542 69.7881 70.4162 70.15 70.7791C70.5118 71.1419 70.9732 71.3893 71.4757 71.4898C71.9782 71.5903 72.4992 71.5394 72.9728 71.3436C73.4464 71.1479 73.8513 70.816 74.1361 70.39C74.421 69.964 74.573 69.463 74.573 68.9506C74.573 68.265 74.3012 67.6075 73.8171 67.1221C73.333 66.6366 72.6762 66.363 71.9907 66.3611Z" fill="#DA291C"/>
<path d="M65.6743 55.1734C66.1865 55.1734 66.6871 55.0215 67.113 54.737C67.5388 54.4524 67.8707 54.048 68.0667 53.5748C68.2627 53.1017 68.314 52.581 68.2141 52.0787C68.1141 51.5764 67.8675 51.115 67.5054 50.7528C67.1432 50.3907 66.6818 50.1441 66.1795 50.0441C65.6772 49.9442 65.1565 49.9955 64.6834 50.1915C64.2102 50.3875 63.8058 50.7194 63.5212 51.1452C63.2367 51.5711 63.0848 52.0717 63.0848 52.5839C63.0848 52.9239 63.1518 53.2607 63.2819 53.5748C63.4121 53.889 63.6028 54.1745 63.8433 54.4149C64.0837 54.6554 64.3692 54.8461 64.6834 54.9763C64.9975 55.1064 65.3343 55.1734 65.6743 55.1734Z" fill="#DA291C"/>
<path d="M65.6743 82.4846C65.1615 82.4832 64.6599 82.6341 64.2329 82.9181C63.806 83.202 63.473 83.6064 63.2761 84.0799C63.0792 84.5533 63.0274 85.0746 63.127 85.5775C63.2267 86.0805 63.4735 86.5426 63.8361 86.9052C64.1987 87.2677 64.6607 87.5145 65.1637 87.6142C65.6667 87.7139 66.1879 87.662 66.6614 87.4651C67.1348 87.2682 67.5392 86.9352 67.8232 86.5083C68.1072 86.0814 68.258 85.5797 68.2566 85.067C68.2547 84.3827 67.982 83.7269 67.4982 83.2431C67.0143 82.7592 66.3586 82.4865 65.6743 82.4846Z" fill="#DA291C"/>
<path d="M65.3596 67.806H52.7555L61.6685 58.8931L63.2064 60.4382V55.7456H58.5139L60.0518 57.2836L49.2647 68.0707L49.2075 68.1566C49.1583 68.2081 49.1129 68.2631 49.0716 68.3211L49.0143 68.4284C48.9972 68.4555 48.9828 68.4842 48.9714 68.5142C48.9563 68.5488 48.9443 68.5848 48.9356 68.6215L49.1073 68.6644H48.9213C48.918 68.6858 48.918 68.7075 48.9213 68.7288C48.9143 68.805 48.9143 68.8816 48.9213 68.9577C48.9139 69.0291 48.9139 69.101 48.9213 69.1723C48.914 69.198 48.914 69.2253 48.9213 69.251L49.0859 69.1938L48.9285 69.2939C48.9285 69.2939 48.9285 69.3583 48.9643 69.3869C48.9813 69.4319 49.0029 69.475 49.0286 69.5157V69.5872C49.0726 69.6517 49.123 69.7116 49.1789 69.766L60.0876 80.6104L58.5497 82.1555H63.2422V77.4558L61.7043 79.0009L52.7555 70.1022H65.3596V72.2482L68.6787 68.9291L65.3596 65.61V67.806Z" fill="#DA291C"/>
<path d="M111.591 3.27612H2.86133V94.8382H111.591V3.27612Z" stroke="black" stroke-width="8" stroke-linecap="round" stroke-linejoin="round"/>
<path d="M2.86133 26.1667H111.591" stroke="black" stroke-width="8" stroke-linecap="round" stroke-linejoin="round"/>
<path d="M100.146 18.9778C101.726 18.9778 103.007 17.6967 103.007 16.1164C103.007 14.5362 101.726 13.2551 100.146 13.2551C98.5657 13.2551 97.2847 14.5362 97.2847 16.1164C97.2847 17.6967 98.5657 18.9778 100.146 18.9778Z" fill="#DA291C"/>
<path d="M87.9854 18.9778C89.5657 18.9778 90.8467 17.6967 90.8467 16.1164C90.8467 14.5362 89.5657 13.2551 87.9854 13.2551C86.4051 13.2551 85.1241 14.5362 85.1241 16.1164C85.1241 17.6967 86.4051 18.9778 87.9854 18.9778Z" fill="#DA291C"/>
<path d="M74.3942 18.9778C75.9744 18.9778 77.2555 17.6967 77.2555 16.1164C77.2555 14.5362 75.9744 13.2551 74.3942 13.2551C72.8139 13.2551 71.5328 14.5362 71.5328 16.1164C71.5328 17.6967 72.8139 18.9778 74.3942 18.9778Z" fill="#DA291C"/>
<path d="M87.5061 58.843C87.5047 58.8168 87.5047 58.7905 87.5061 58.7643L87.4704 58.4281C87.0991 56.4552 86.2467 54.6043 84.989 53.0396C83.7312 51.4749 82.1068 50.2446 80.2599 49.4579C80.2271 48.4649 80.1099 47.4766 79.9094 46.5036C79.1923 43.157 77.3178 40.1706 74.6159 38.0698C72.8628 36.6016 70.8229 35.515 68.6264 34.8793C66.4298 34.2436 64.1249 34.0727 61.8586 34.3776C59.5924 34.6825 57.4145 35.4565 55.4641 36.6502C53.5137 37.8438 51.8335 39.4309 50.5308 41.3103C49.1944 41.1882 47.8471 41.2946 46.5464 41.625C44.6905 42.0142 42.9499 42.8277 41.4607 44.0016C39.9715 45.1756 38.7742 46.6783 37.9625 48.392C36.9396 48.485 35.9453 48.5995 34.9867 48.7783H34.8794C33.2134 49.2256 31.6598 50.0177 30.3191 51.1032C28.9785 52.1888 27.8807 53.5437 27.0967 55.0803C26.3377 56.5216 25.8896 58.106 25.7811 59.7312C25.6727 61.3564 25.9064 62.9863 26.4672 64.5155C27.369 66.9963 29.0291 69.1301 31.2118 70.6143C33.3945 72.0986 35.9892 72.8579 38.6277 72.7847H39.8438V69.3869H38.6277C36.6915 69.431 34.7899 68.8695 33.1882 67.7808C31.5865 66.692 30.3647 65.1304 29.6933 63.3138C29.2992 62.2311 29.1363 61.0778 29.2152 59.9283C29.294 58.7788 29.6128 57.6585 30.1511 56.6398C30.7104 55.5373 31.4926 54.563 32.4482 53.7786C33.4037 52.9943 34.5117 52.4169 35.7021 52.0831C36.632 51.9043 37.6621 51.8113 38.6778 51.7111H38.8209C39.2414 51.7111 39.6522 51.585 40.0003 51.3491C40.3484 51.1132 40.6178 50.7783 40.7737 50.3878L40.8166 50.302C41.3823 48.9409 42.2726 47.739 43.4098 46.8013C44.547 45.8636 45.8965 45.2186 47.3404 44.9227C48.3739 44.6522 49.45 44.5842 50.5094 44.7224C50.9651 44.8491 51.4499 44.8217 51.8884 44.6445C52.3269 44.4673 52.6946 44.1501 52.9343 43.7424C53.9206 42.1646 55.2334 40.8164 56.7844 39.7886C58.3354 38.7607 60.0886 38.0771 61.926 37.7837C63.7883 37.4658 65.6978 37.5632 67.518 38.0689C69.3383 38.5747 71.0243 39.4763 72.4556 40.7094C74.5625 42.3143 76.0243 44.6213 76.5759 47.2117C76.7718 48.2108 76.8701 49.2266 76.8692 50.2447V50.4736L76.9837 50.8814C77.0861 51.2191 77.2703 51.5263 77.5198 51.7759C77.7694 52.0254 78.0766 52.2096 78.4143 52.312C81.6047 53.6855 83.4788 55.8887 84.1369 58.9217C84.1517 59.119 84.1804 59.315 84.2228 59.5082C84.2191 59.5343 84.2191 59.5608 84.2228 59.5869V61.4468C84.1192 62.1247 83.9662 62.7941 83.765 63.4497C83.2621 64.7653 82.462 65.9469 81.4271 66.9024C80.3923 67.8578 79.1506 68.5612 77.7991 68.9577L77.5416 69.0293V72.5129L77.9851 72.4128C80.0148 71.9659 81.8997 71.0165 83.467 69.6517C85.0343 68.2869 86.2337 66.5503 86.9553 64.6014L86.9911 64.4941C87.2637 63.6002 87.4669 62.6866 87.5991 61.7615V59.6155C87.5935 59.3556 87.5623 59.0968 87.5061 58.843Z" fill="#DA291C"/>
</g>
<defs>
<clipPath id="clip0_88_612">
<rect width="114.453" height="98" fill="white"/>
</clipPath>
</defs>
</svg>
