<svg width="106" height="98" viewBox="0 0 106 98" fill="none" xmlns="http://www.w3.org/2000/svg">
<g clip-path="url(#clip0_88_624)">
<path d="M13.607 55.3942L9.36353 57.8442L24.1309 83.4221L28.3744 80.9721L13.607 55.3942Z" fill="black"/>
<path d="M24.1344 14.5683L9.03625 40.719L13.2798 43.169L28.3779 17.0183L24.1344 14.5683Z" fill="black"/>
<path d="M69.4207 6.65796H37.0991V11.558H69.4207V6.65796Z" fill="black"/>
<path d="M82.2368 14.6755L77.9933 17.1255L93.4038 43.8173L97.6473 41.3673L82.2368 14.6755Z" fill="black"/>
<path d="M92.6231 55.5263L77.9844 80.8813L82.2279 83.3314L96.8667 57.9763L92.6231 55.5263Z" fill="black"/>
<path d="M69.4208 86.4421H37.0808V91.3421H69.4208V86.4421Z" fill="black"/>
<path d="M29.9329 19.251C28.0486 19.2328 26.212 18.6563 24.6552 17.5946C23.0984 16.5328 21.8913 15.0334 21.1864 13.2858C20.4816 11.5382 20.3106 9.62081 20.6952 7.77606C21.0797 5.93132 22.0025 4.24197 23.3469 2.92153C24.6913 1.6011 26.397 0.708836 28.2483 0.357524C30.0997 0.00621194 32.0137 0.211617 33.7483 0.947777C35.483 1.68394 36.9605 2.91781 37.9941 4.49345C39.0277 6.06909 39.571 7.91578 39.5553 9.80011V9.85524C39.5214 12.376 38.4895 14.7804 36.6858 16.5416C34.8821 18.3029 32.4537 19.2772 29.9329 19.251ZM29.9329 5.08999C29.316 5.08595 28.7043 5.20348 28.1328 5.43585C27.5613 5.66822 27.0411 6.01088 26.602 6.44428C26.1629 6.87768 25.8135 7.39332 25.5737 7.96176C25.3339 8.5302 25.2084 9.1403 25.2044 9.75724V9.86136C25.2795 11.0653 25.8107 12.1953 26.6897 13.0213C27.5688 13.8473 28.7297 14.3071 29.936 14.3071C31.1422 14.3071 32.3031 13.8473 33.1822 13.0213C34.0613 12.1953 34.5925 11.0653 34.6676 9.86136C34.6773 9.24186 34.5644 8.62656 34.3353 8.05088C34.1062 7.4752 33.7656 6.95052 33.3329 6.50704C32.9002 6.06355 32.3841 5.71004 31.8143 5.46684C31.2444 5.22364 30.6321 5.09557 30.0126 5.08999H29.9329Z" fill="black"/>
<path d="M76.5992 19.251C74.7158 19.2292 72.881 18.6497 71.3266 17.5858C69.7723 16.5218 68.568 15.0212 67.866 13.2733C67.164 11.5254 66.9956 9.60865 67.3822 7.76514C67.7688 5.92163 68.693 4.23401 70.0381 2.91541C71.3832 1.59681 73.0889 0.706359 74.9397 0.356509C76.7905 0.00665866 78.7035 0.213098 80.4371 0.949759C82.1707 1.68642 83.6471 2.92026 84.6799 4.49547C85.7127 6.07068 86.2556 7.91662 86.24 9.80016V9.83691C86.2256 11.0882 85.9648 12.3244 85.4724 13.4749C84.98 14.6253 84.2658 15.6675 83.3704 16.5417C82.4751 17.416 81.4163 18.1053 80.2544 18.5702C79.0926 19.035 77.8505 19.2664 76.5992 19.251ZM76.5992 5.09004C75.9823 5.086 75.3706 5.20353 74.7991 5.43589C74.2276 5.66826 73.7074 6.01093 73.2683 6.44433C72.8293 6.87773 72.4798 7.39336 72.24 7.9618C72.0002 8.53024 71.8748 9.14035 71.8707 9.75729V9.86141C71.9458 11.0653 72.477 12.1954 73.3561 13.0214C74.2352 13.8473 75.3961 14.3072 76.6023 14.3072C77.8086 14.3072 78.9695 13.8473 79.8486 13.0214C80.7276 12.1954 81.2588 11.0653 81.3339 9.86141C81.3436 9.24395 81.2315 8.63063 81.004 8.05654C80.7764 7.48244 80.438 6.95884 80.0079 6.51568C79.5778 6.07252 79.0646 5.7185 78.4976 5.47388C77.9305 5.22925 77.3208 5.09882 76.7034 5.09004H76.5992Z" fill="black"/>
<path d="M29.9329 97.8103C28.0483 97.7921 26.2115 97.2155 24.6545 96.1534C23.0976 95.0914 21.8905 93.5916 21.1859 91.8436C20.4812 90.0957 20.3106 88.178 20.6957 86.3331C21.0807 84.4882 22.0041 82.7989 23.3491 81.4787C24.6941 80.1585 26.4004 79.2667 28.2521 78.9161C30.1039 78.5655 32.018 78.7718 33.7526 79.5089C35.4871 80.246 36.9642 81.4808 37.997 83.0573C39.0299 84.6337 39.5721 86.481 39.5553 88.3656V88.4207C39.5197 90.9403 38.4871 93.3432 36.6836 95.1031C34.8801 96.863 32.4526 97.8365 29.9329 97.8103ZM29.9329 83.6493C29.3159 83.6453 28.7042 83.7628 28.1327 83.9952C27.5612 84.2275 27.0411 84.5702 26.602 85.0036C26.1629 85.437 25.8135 85.9526 25.5737 86.5211C25.3339 87.0895 25.2084 87.6996 25.2044 88.3166V88.4207C25.2794 89.6246 25.8106 90.7546 26.6897 91.5806C27.5688 92.4066 28.7297 92.8664 29.9359 92.8664C31.1422 92.8664 32.3031 92.4066 33.1822 91.5806C34.0613 90.7546 34.5924 89.6246 34.6675 88.4207C34.6772 87.8012 34.5643 87.1859 34.3352 86.6102C34.1062 86.0345 33.7655 85.5098 33.3329 85.0664C32.9002 84.6229 32.3841 84.2694 31.8142 84.0262C31.2444 83.783 30.6321 83.6549 30.0125 83.6493H29.9329Z" fill="black"/>
<path d="M76.5993 97.8104C74.7147 97.7885 72.879 97.2083 71.3242 96.1433C69.7693 95.0782 68.5652 93.5761 67.8639 91.8268C67.1626 90.0774 66.9958 88.1595 67.3844 86.3153C67.773 84.4712 68.6996 82.7837 70.0472 81.4661C71.3947 80.1485 73.1027 79.26 74.9551 78.913C76.8075 78.5659 78.7212 78.7759 80.4543 79.5163C82.1874 80.2567 83.6621 81.4944 84.6919 83.0728C85.7217 84.6512 86.2605 86.4995 86.24 88.384V88.4207C86.2045 90.9436 85.1694 93.3493 83.3619 95.1097C81.5544 96.8702 79.1222 97.8414 76.5993 97.8104ZM76.5993 83.6494C75.9823 83.6453 75.3706 83.7628 74.7991 83.9952C74.2276 84.2276 73.7074 84.5703 73.2684 85.0037C72.8293 85.437 72.4799 85.9527 72.2401 86.5211C72.0003 87.0896 71.8748 87.6997 71.8708 88.3166V88.4207C71.9458 89.6247 72.477 90.7547 73.3561 91.5807C74.2352 92.4067 75.3961 92.8665 76.6023 92.8665C77.8086 92.8665 78.9695 92.4067 79.8486 91.5807C80.7277 90.7547 81.2588 89.6247 81.3339 88.4207C81.3436 87.8033 81.2315 87.19 81.004 86.6159C80.7764 86.0418 80.438 85.5182 80.0079 85.075C79.5778 84.6318 79.0646 84.2778 78.4976 84.0332C77.9305 83.7886 77.3209 83.6581 76.7034 83.6494H76.5993Z" fill="black"/>
<path d="M10.1124 59.2043C8.22746 59.2043 6.38483 58.6454 4.81755 57.5981C3.25027 56.5509 2.02872 55.0625 1.30738 53.321C0.586039 51.5795 0.397303 49.6632 0.765039 47.8145C1.13278 45.9658 2.04047 44.2676 3.37333 42.9347C4.7062 41.6019 6.40437 40.6942 8.2531 40.3264C10.1018 39.9587 12.0181 40.1474 13.7596 40.8688C15.501 41.5901 16.9895 42.8117 18.0367 44.379C19.084 45.9462 19.6429 47.7889 19.6429 49.6738C19.6429 52.2015 18.6388 54.6256 16.8515 56.4129C15.0642 58.2002 12.6401 59.2043 10.1124 59.2043ZM10.1124 45.0433C9.49548 45.0393 8.88379 45.1568 8.31227 45.3892C7.74075 45.6215 7.2206 45.9642 6.78152 46.3976C6.34243 46.831 5.99301 47.3466 5.75321 47.9151C5.51341 48.4835 5.38792 49.0936 5.38391 49.7106V49.8147C5.41919 51.0359 5.93628 52.1935 6.82224 53.0347C7.7082 53.8759 8.89104 54.3323 10.1124 54.3043C11.3353 54.3356 12.5206 53.8804 13.4083 53.0387C14.2959 52.197 14.8134 51.0375 14.847 49.8147C14.8568 49.1972 14.7447 48.5839 14.5171 48.0098C14.2896 47.4357 13.9511 46.9121 13.521 46.469C13.091 46.0258 12.5777 45.6718 12.0107 45.4272C11.4437 45.1825 10.834 45.0521 10.2165 45.0433H10.1124Z" fill="black"/>
<path d="M96.3034 59.2044C94.4199 59.1789 92.5863 58.5959 91.034 57.5289C89.4818 56.462 88.2805 54.959 87.5818 53.2098C86.8832 51.4605 86.7185 49.5435 87.1087 47.7008C87.4988 45.858 88.4262 44.1722 89.7739 42.8562C91.1215 41.5402 92.8288 40.653 94.6803 40.3067C96.5318 39.9604 98.4444 40.1706 100.177 40.9105C101.909 41.6505 103.383 42.8871 104.413 44.4643C105.442 46.0415 105.982 47.8884 105.962 49.7719V49.8148C105.925 52.3404 104.887 54.7479 103.076 56.5085C101.265 58.2691 98.829 59.2388 96.3034 59.2044ZM96.3034 45.0434C95.6856 45.0394 95.0731 45.1571 94.5009 45.3897C93.9286 45.6224 93.4078 45.9655 92.9681 46.3995C92.5285 46.8335 92.1786 47.3498 91.9385 47.919C91.6984 48.4881 91.5727 49.099 91.5687 49.7168V49.8148C91.6438 51.0187 92.175 52.1487 93.0541 52.9747C93.9332 53.8007 95.094 54.2605 96.3003 54.2605C97.5066 54.2605 98.6675 53.8007 99.5465 52.9747C100.426 52.1487 100.957 51.0187 101.032 49.8148C101.042 49.1981 100.931 48.5854 100.705 48.0118C100.478 47.4381 100.141 46.9147 99.712 46.4716C99.2831 46.0284 98.771 45.6742 98.205 45.4291C97.639 45.184 97.0303 45.053 96.4136 45.0434H96.3034Z" fill="black"/>
<path d="M35.9692 15.4657L31.8052 18.0134L70.8555 81.8378L75.0196 79.2901L35.9692 15.4657Z" fill="black"/>
<path d="M88.5736 51.15H17.346C16.6962 51.15 16.073 50.8919 15.6136 50.4324C15.1541 49.9729 14.896 49.3498 14.896 48.7C14.896 48.0502 15.1541 47.4271 15.6136 46.9676C16.073 46.5081 16.6962 46.25 17.346 46.25H88.5736C89.2234 46.25 89.8466 46.5081 90.306 46.9676C90.7655 47.4271 91.0236 48.0502 91.0236 48.7C91.0236 49.3498 90.7655 49.9729 90.306 50.4324C89.8466 50.8919 89.2234 51.15 88.5736 51.15Z" fill="black"/>
<path d="M33.5037 84.0718C33.07 84.0719 32.644 83.9569 32.2692 83.7385C31.8945 83.5201 31.5845 83.2061 31.3708 82.8286C31.1572 82.4511 31.0476 82.0237 31.0532 81.59C31.0588 81.1563 31.1795 80.7318 31.4029 80.36L69.9904 16.0476C70.325 15.4904 70.8673 15.0889 71.4979 14.9316C72.1285 14.7742 72.7958 14.8738 73.353 15.2084C73.9102 15.5431 74.3116 16.0853 74.469 16.7159C74.6263 17.3466 74.5268 18.0139 74.1921 18.5711L35.6046 82.8836C35.3868 83.2461 35.0788 83.5461 34.7107 83.7543C34.3425 83.9626 33.9267 84.0719 33.5037 84.0718Z" fill="black"/>
<path d="M53.1221 63.7982C61.2407 63.7982 67.8221 57.2168 67.8221 49.0982C67.8221 40.9796 61.2407 34.3982 53.1221 34.3982C45.0035 34.3982 38.4221 40.9796 38.4221 49.0982C38.4221 57.2168 45.0035 63.7982 53.1221 63.7982Z" fill="#DA291C"/>
</g>
<defs>
<clipPath id="clip0_88_624">
<rect width="105.963" height="98" fill="white"/>
</clipPath>
</defs>
</svg>
