<svg width="98" height="98" viewBox="0 0 98 98" fill="none" xmlns="http://www.w3.org/2000/svg">
<g clip-path="url(#clip0_90_172)">
<path d="M67.5247 67.6953L92.7938 92.9711" stroke="black" stroke-width="8" stroke-linejoin="round"/>
<path d="M94.8899 66V94.7126H65.8234" stroke="black" stroke-width="8" stroke-linejoin="round"/>
<path d="M30.4753 30.3051L5.20624 5.0293" stroke="black" stroke-width="8" stroke-linejoin="round"/>
<path d="M3.11017 31.9997V3.28711H32.1767" stroke="black" stroke-width="8" stroke-linejoin="round"/>
<path d="M67.6949 30.4761L92.9707 5.20703" stroke="black" stroke-width="8" stroke-linejoin="round"/>
<path d="M66.0003 3.10938H94.7129V32.1759" stroke="black" stroke-width="8" stroke-linejoin="round"/>
<path d="M30.3051 67.5254L5.0293 92.7944" stroke="black" stroke-width="8" stroke-linejoin="round"/>
<path d="M31.9997 94.8907H3.28711V65.8242" stroke="black" stroke-width="8" stroke-linejoin="round"/>
<path d="M52.1578 24.8271H45.5972C44.4267 28.1006 44.0796 30.2307 41.5139 31.306C40.9263 31.5475 40.298 31.6746 39.6628 31.6803C37.941 31.6803 36.3689 30.6935 33.9597 29.5774L29.3456 34.1848C30.8428 37.3493 32.1699 39.0711 31.0742 41.6709C29.9785 44.2706 27.8415 44.5428 24.5544 45.7542V52.2535C27.8415 53.4649 30.0329 53.812 31.0742 56.3368C32.1154 58.8617 30.8428 60.706 29.3456 63.823L33.9597 68.4303C36.294 67.3278 37.8797 66.3478 39.5947 66.3478C40.2563 66.3514 40.9099 66.4928 41.5139 66.763C44.0524 67.7974 44.3994 69.9275 45.5564 73.2623H52.1306C53.2875 69.9275 53.6278 67.8178 56.2139 66.763C56.8036 66.4934 57.4438 66.3519 58.0922 66.3478C59.7664 66.3478 61.3317 67.3278 63.7136 68.4303L68.3278 63.823C66.8306 60.6584 65.5647 58.9366 66.5992 56.3368C67.6336 53.7371 69.8318 53.4581 73.1189 52.2535V45.7678C69.7706 44.5564 67.6744 44.2706 66.5992 41.6845C65.5239 39.0984 66.8306 37.3698 68.3278 34.1984L63.7136 29.591C61.3453 30.7071 59.7528 31.6939 58.0378 31.6939C57.4109 31.692 56.7908 31.5647 56.2139 31.3196C53.6142 30.2239 53.2739 28.0938 52.1306 24.8203L52.1578 24.8271ZM48.8707 60.7332C46.5582 60.7319 44.2981 60.0448 42.3761 58.759C40.4542 57.4732 38.9566 55.6462 38.073 53.5093C37.1893 51.3724 36.9591 49.0214 37.4115 46.7536C37.864 44.4859 38.9788 42.4032 40.6149 40.769C42.251 39.1348 44.3349 38.0225 46.6032 37.5727C48.8715 37.1229 51.2222 37.3558 53.3581 38.2419C55.494 39.1281 57.3192 40.6278 58.6028 42.5512C59.8864 44.4747 60.5708 46.7356 60.5694 49.0481C60.5676 52.1478 59.335 55.12 57.1425 57.3111C54.9501 59.5023 51.9772 60.7332 48.8775 60.7332H48.8707Z" fill="#DA291C"/>
</g>
<defs>
<clipPath id="clip0_90_172">
<rect width="98" height="98" fill="white"/>
</clipPath>
</defs>
</svg>
