<svg width="98" height="98" viewBox="0 0 98 98" fill="none" xmlns="http://www.w3.org/2000/svg">
<path d="M77.5648 30.3471L71.217 41.4835C68.2659 41.8733 66.2057 44.546 66.5398 47.4971C66.5954 47.9983 66.7625 48.4994 66.9295 48.9449L55.9045 68.2665C52.9534 68.5449 50.7818 71.1619 51.0602 74.1131C51.1159 74.7256 51.2829 75.3381 51.5613 75.8949L47.4409 83.0778C45.5477 83.0221 43.7102 82.7437 41.8727 82.354L54.6795 59.8585C57.6307 59.4687 59.6909 56.796 59.3568 53.8449C59.3011 53.3437 59.1341 52.8426 58.967 52.3971L74.0568 25.8369C75.3375 27.229 76.5068 28.7324 77.5648 30.3471Z" fill="black"/>
<path d="M36.5829 80.794L49.7238 57.7974C47.942 55.4031 48.3875 52.0622 50.7818 50.2804C51.7284 49.5565 52.842 49.2224 54.0113 49.2224C54.1784 49.2224 54.4011 49.2224 54.5682 49.2781L69.992 22.2167C68.6557 21.1588 67.2079 20.2122 65.7045 19.3213L57.4636 33.7986C58.7443 36.4713 57.575 39.7008 54.9022 40.9258C54.3454 41.2042 53.7329 41.3713 53.1204 41.427L31.9613 78.6224C33.4647 79.4577 35.0238 80.1815 36.5829 80.794Z" fill="black"/>
<path d="M48.2762 39.1448C46.55 36.7505 47.1069 33.4096 49.5012 31.6834C50.3921 31.0152 51.5057 30.6811 52.6194 30.6811C52.7864 30.6811 52.8978 30.6811 53.0648 30.6811L60.8603 16.9834C43.2091 10.413 23.5534 19.3777 16.983 37.0845C11.8603 50.838 16.0921 66.3175 27.5069 75.5607L48.2762 39.1448Z" fill="black"/>
<path d="M76.1728 43.5981C77.9546 45.9925 77.4534 49.3334 75.1148 51.1152C74.1682 51.7834 73.0546 52.1731 71.8853 52.1731C71.6625 52.1731 71.4955 52.1731 71.2728 52.1175L60.8046 70.4925C62.5307 72.9425 61.9182 76.2834 59.5239 78.0095C58.633 78.6777 57.5194 79.0118 56.4057 79.0118C56.2387 79.0118 56.1273 79.0118 55.9603 79.0118L53.7887 82.8538C72.4421 80.1811 85.4159 62.9197 82.7989 44.2663C82.4091 41.4265 81.6296 38.6425 80.5159 35.9697L76.1728 43.5981Z" fill="black"/>
<path d="M52.4523 38.6433C53.9591 38.6433 55.1807 37.4218 55.1807 35.9149C55.1807 34.4081 53.9591 33.1865 52.4523 33.1865C50.9454 33.1865 49.7239 34.4081 49.7239 35.9149C49.7239 37.4218 50.9454 38.6433 52.4523 38.6433Z" fill="#9164CC"/>
<path d="M54.1785 57.241C55.6853 57.241 56.9069 56.0194 56.9069 54.5126C56.9069 53.0057 55.6853 51.7842 54.1785 51.7842C52.6716 51.7842 51.45 53.0057 51.45 54.5126C51.45 56.0194 52.6716 57.241 54.1785 57.241Z" fill="#0071CE"/>
<path d="M71.8852 49.6121C73.3921 49.6121 74.6136 48.3905 74.6136 46.8837C74.6136 45.3768 73.3921 44.1553 71.8852 44.1553C70.3784 44.1553 69.1568 45.3768 69.1568 46.8837C69.1568 48.3905 70.3784 49.6121 71.8852 49.6121Z" fill="#DA291C"/>
<path d="M56.5171 76.284C58.0239 76.284 59.2455 75.0624 59.2455 73.5556C59.2455 72.0487 58.0239 70.8271 56.5171 70.8271C55.0102 70.8271 53.7887 72.0487 53.7887 73.5556C53.7887 75.0624 55.0102 76.284 56.5171 76.284Z" fill="#6AD1E3"/>
<path d="M49 98C21.9386 98 0 76.0614 0 49C0 21.9386 21.9386 0 49 0C76.0614 0 98 21.9386 98 49C97.9443 76.0614 76.0614 97.9443 49 98ZM49 4.45455C24.3886 4.45455 4.45455 24.3886 4.45455 49C4.45455 73.6114 24.3886 93.5455 49 93.5455C73.6114 93.5455 93.5455 73.6114 93.5455 49C93.5455 24.3886 73.6114 4.45455 49 4.45455Z" fill="black"/>
</svg>
