<svg width="96" height="98" viewBox="0 0 96 98" fill="none" xmlns="http://www.w3.org/2000/svg">
<path d="M66.6068 82.2978H84.4793L94.7056 64.5802L85.7583 49.0774L94.7056 33.5746L84.4793 15.8571H66.6068L57.6594 0.354248H37.2012L28.2373 15.8571H10.3426L0.116272 33.5746L9.06362 49.0774L0.116272 64.5802L10.3426 82.2978H28.2373L37.1902 97.8006H57.676L66.6068 82.2978ZM39.7592 62.3655L32.113 49.0774L39.7869 35.7893H55.0959L62.7698 49.0774L55.0959 62.3655H39.7592ZM81.9213 77.8684H66.6068L58.9384 64.5802L66.6068 51.2921H81.9435L89.6119 64.5802L81.9213 77.8684ZM89.5897 33.5746L81.9435 46.8627H66.6068L58.9384 33.5746L66.6068 20.2865H81.9435L89.5897 33.5746ZM39.7592 4.78363H55.1015L62.7588 18.0718L55.0682 31.3599H39.7592L32.113 18.0718L39.7592 4.78363ZM12.9006 20.2865H28.2373L35.9112 33.5746L28.2373 46.8627H12.9006L5.2322 33.5746L12.9006 20.2865ZM5.2322 64.5802L12.9006 51.2921H28.2373L35.9112 64.5802L28.2373 77.8684H12.9006L5.2322 64.5802ZM39.7592 93.3712L32.113 80.0831L39.7869 66.7949H55.0959L62.7864 80.0831L55.1291 93.3712H39.7592Z" fill="black"/>
<path d="M51.2978 42.3779H43.5629L39.6928 49.0774L43.5629 55.7768H51.2978L55.1624 49.0774L51.2978 42.3779Z" fill="#DA291C"/>
<path d="M78.1176 57.8809H70.3828L66.5127 64.5803L70.3828 71.2797H78.1176L81.9823 64.5803L78.1176 57.8809Z" fill="#DA291C"/>
<path d="M51.2978 11.3723H43.5629L39.6928 18.0717L43.5629 24.7712H51.2978L55.1624 18.0717L51.2978 11.3723Z" fill="#DA291C"/>
<path d="M24.4391 57.8809H16.7043L12.8397 64.5803L16.7043 71.2797H24.4391L28.3093 64.5803L24.4391 57.8809Z" fill="#DA291C"/>
</svg>
