<svg width="109" height="98" viewBox="0 0 109 98" fill="none" xmlns="http://www.w3.org/2000/svg">
<g clip-path="url(#clip0_90_243)">
<path d="M98.6235 38.5605C96.3052 38.566 94.0552 39.3523 92.2318 40.7943C90.4084 42.2364 89.1162 44.2513 88.561 46.5184H79.6255V51.4804H88.561C89.0231 53.3826 90.0071 55.1154 91.4006 56.4811C92.7941 57.8467 94.5408 58.79 96.4413 59.2032C98.3418 59.6164 100.319 59.4829 102.148 58.8179C103.977 58.1528 105.583 56.9831 106.783 55.4423C107.983 53.9015 108.728 52.0519 108.934 50.1046C109.14 48.1574 108.798 46.1911 107.947 44.4303C107.096 42.6696 105.77 41.1855 104.122 40.1476C102.473 39.1096 100.568 38.5596 98.6235 38.5605ZM98.6235 54.4762C97.5486 54.4738 96.4985 54.1505 95.6059 53.5472C94.7133 52.9439 94.0182 52.0877 93.6085 51.0867C93.1989 50.0857 93.0929 48.9849 93.3041 47.9234C93.5153 46.8618 94.0342 45.887 94.7952 45.1223C95.5561 44.3576 96.525 43.8372 97.5795 43.6269C98.634 43.4166 99.7267 43.5258 100.72 43.9407C101.712 44.3556 102.561 45.0575 103.158 45.9579C103.755 46.8583 104.074 47.9167 104.074 48.9994C104.07 50.4531 103.495 51.8461 102.473 52.8729C101.451 53.8996 100.067 54.4762 98.6235 54.4762Z" fill="black"/>
<path d="M29.9658 51.4804V46.5184H21.0303C20.428 44.0394 18.9449 41.8684 16.8614 40.416C14.7778 38.9635 12.2382 38.3301 9.72243 38.6356C7.20672 38.9411 4.88927 40.1643 3.20816 42.0739C1.52705 43.9835 0.598755 46.4473 0.598755 48.9994C0.598755 51.5516 1.52705 54.0154 3.20816 55.925C4.88927 57.8346 7.20672 59.0578 9.72243 59.3632C12.2382 59.6687 14.7778 59.0354 16.8614 57.5829C18.9449 56.1304 20.428 53.9595 21.0303 51.4804H29.9658ZM10.9678 54.4763C9.89256 54.475 8.84184 54.1528 7.94843 53.5502C7.05502 52.9477 6.35901 52.0919 5.94839 51.091C5.53777 50.0902 5.43096 48.9892 5.64147 47.9272C5.85198 46.8652 6.37036 45.8899 7.13108 45.1245C7.8918 44.3592 8.86071 43.8382 9.91535 43.6274C10.97 43.4166 12.063 43.5254 13.0563 43.9401C14.0495 44.3548 14.8984 45.0568 15.4956 45.9573C16.0928 46.8578 16.4116 47.9165 16.4116 48.9994C16.41 50.4525 15.8357 51.8456 14.815 52.8725C13.7942 53.8994 12.4105 54.4763 10.9678 54.4763Z" fill="black"/>
<path d="M40.0282 69.1465L35.5697 77.0733C33.1396 76.3536 30.5319 76.5556 28.2398 77.6413C25.9476 78.7269 24.1298 80.6209 23.1302 82.965C22.1305 85.3091 22.0184 87.9409 22.8148 90.3627C23.6113 92.7845 25.2612 94.8284 27.4526 96.1079C29.644 97.3874 32.2249 97.8138 34.7073 97.3065C37.1896 96.7992 39.4014 95.3933 40.9243 93.3547C42.4473 91.3161 43.1757 88.7861 42.972 86.2432C42.7683 83.7003 41.6466 81.3206 39.8189 79.5543L44.2774 71.6337L40.0282 69.1465ZM37.2878 89.8381C36.7429 90.7739 35.9347 91.5258 34.9653 91.9987C33.996 92.4717 32.9091 92.6443 31.8423 92.4949C30.7755 92.3455 29.7767 91.8807 28.9722 91.1593C28.1677 90.438 27.5938 89.4925 27.3231 88.4425C27.0523 87.3925 27.0969 86.2852 27.4512 85.2607C27.8054 84.2362 28.4535 83.3406 29.3133 82.6872C30.1731 82.0338 31.206 81.652 32.2813 81.59C33.3566 81.5281 34.426 81.7889 35.3542 82.3393C35.9708 82.703 36.51 83.1858 36.9411 83.7598C37.3721 84.3339 37.6864 84.9879 37.8661 85.6845C38.0457 86.3811 38.0871 87.1066 37.9879 87.8194C37.8886 88.5321 37.6508 89.2181 37.2878 89.8381Z" fill="black"/>
<path d="M69.2489 28.8789L74.0153 20.9335C74.9738 21.226 75.9698 21.3744 76.9713 21.3739C79.3814 21.3812 81.719 20.5438 83.5833 19.0053C85.4475 17.4667 86.7223 15.3228 87.1889 12.9413C87.6556 10.5597 87.2851 8.08881 86.141 5.95225C84.9969 3.81569 83.1504 2.14659 80.9182 1.23112C78.686 0.31566 76.2072 0.210876 73.9067 0.934739C71.6062 1.6586 69.6273 3.16601 68.3095 5.1985C66.9917 7.231 66.4169 9.66194 66.6838 12.0745C66.9507 14.4871 68.0427 16.731 69.7724 18.4215L64.9998 26.3669L69.2489 28.8789ZM72.328 8.16248C72.8731 7.22886 73.6808 6.47898 74.6489 6.00764C75.6171 5.53631 76.7023 5.36468 77.7673 5.51447C78.8323 5.66425 79.8293 6.12872 80.6323 6.84914C81.4352 7.56957 82.0081 8.51361 82.2784 9.56192C82.5487 10.6102 82.5044 11.7157 82.151 12.7386C81.7975 13.7615 81.1509 14.656 80.2929 15.3088C79.4349 15.9616 78.4039 16.3436 77.3304 16.4063C76.2568 16.4691 75.1889 16.2098 74.2617 15.6613C73.6393 15.3032 73.0941 14.8238 72.6578 14.2511C72.2215 13.6784 71.9029 13.0238 71.7206 12.3257C71.5383 11.6276 71.4959 10.8998 71.596 10.185C71.696 9.4702 71.9365 8.78264 72.3034 8.16248H72.328Z" fill="black"/>
<path d="M79.5577 76.9992C77.722 76.5164 75.7899 76.5507 73.9722 77.0984L69.2489 69.3887L64.9998 71.8697L69.7231 79.5794C68.4026 80.8674 67.446 82.4859 66.9513 84.269C66.4565 86.0521 66.4416 87.9356 66.9079 89.7264C67.3741 91.5173 68.3049 93.151 69.6048 94.4601C70.9046 95.7692 72.5267 96.7065 74.3048 97.176C75.1674 97.4026 76.0552 97.5172 76.9466 97.5172C79.4619 97.5072 81.8879 96.5768 83.7728 94.8993C85.6577 93.2218 86.873 90.9114 87.1924 88.3985C87.5118 85.8856 86.9135 83.3414 85.509 81.2398C84.1044 79.1381 81.9894 77.6222 79.5577 76.9744V76.9992ZM82.1934 88.4863C81.9668 89.3575 81.5303 90.159 80.9227 90.8197C80.315 91.4805 79.555 91.9801 78.7098 92.2743C77.8647 92.5686 76.9606 92.6483 76.0775 92.5066C75.1945 92.3649 74.3598 92.006 73.6473 91.4617C72.9349 90.9174 72.3667 90.2046 71.993 89.3864C71.6194 88.5681 71.4519 87.6697 71.5054 86.7707C71.5588 85.8716 71.8316 84.9998 72.2995 84.2323C72.7673 83.4648 73.4159 82.8253 74.1878 82.3706C75.0189 81.8798 75.9647 81.6207 76.9282 81.6201C77.3959 81.6188 77.8617 81.6793 78.3138 81.7999C79.0053 81.9811 79.6546 82.2979 80.2244 82.7322C80.7942 83.1665 81.2733 83.7098 81.6343 84.3309C81.9953 84.952 82.231 85.6388 82.328 86.3519C82.425 87.0649 82.3814 87.7902 82.1996 88.4863H82.1934Z" fill="black"/>
<path d="M41.6109 5.63216C40.7502 4.15049 39.54 2.90548 38.0875 2.00739C36.635 1.1093 34.985 0.585867 33.2837 0.483443C31.5823 0.381019 29.8822 0.702769 28.3338 1.42019C26.7854 2.13762 25.4366 3.22858 24.4068 4.59644C23.377 5.96429 22.698 7.56683 22.43 9.26211C22.162 10.9574 22.3132 12.6931 22.8702 14.3154C23.4272 15.9378 24.3729 17.3968 25.6235 18.5631C26.874 19.7294 28.3909 20.5672 30.0396 21.002C30.902 21.2307 31.7898 21.3474 32.6815 21.3494C33.6766 21.3456 34.6659 21.1973 35.619 20.909L40.0282 28.8482L44.2774 26.3672L39.8681 18.3908C41.5314 16.7655 42.6066 14.6263 42.9225 12.314C43.2383 10.0017 42.7766 7.64943 41.6109 5.63216ZM31.2836 16.1765C30.0232 15.8258 28.9304 15.0294 28.2056 13.9333C27.4807 12.8371 27.1723 11.5145 27.3369 10.208C27.5015 8.9014 28.128 7.69833 29.1017 6.8192C30.0754 5.94008 31.331 5.44379 32.6384 5.42128C33.1059 5.42266 33.5714 5.48309 34.024 5.60115C34.7175 5.78006 35.3692 6.09514 35.9415 6.52831C36.5138 6.96149 36.9956 7.50424 37.3592 8.12541C37.7227 8.74658 37.961 9.43395 38.0601 10.1481C38.1593 10.8622 38.1175 11.589 37.9371 12.2868C37.7567 12.9846 37.4412 13.6397 37.0089 14.2144C36.5765 14.7891 36.0357 15.2722 35.4175 15.6359C34.7994 15.9996 34.116 16.2367 33.4065 16.3338C32.6971 16.4308 31.9757 16.3858 31.2836 16.2013V16.1765Z" fill="black"/>
<path d="M54.8079 49.0859C60.9536 49.0859 65.9358 44.0679 65.9358 37.8779C65.9358 31.6879 60.9536 26.6699 54.8079 26.6699C48.6622 26.6699 43.6801 31.6879 43.6801 37.8779C43.6801 44.0679 48.6622 49.0859 54.8079 49.0859Z" fill="#DA291C"/>
<path d="M72.6974 60.5424V66.3976H36.9491V60.5424C36.947 59.0015 37.4198 57.4979 38.3023 56.2392C39.1847 54.9804 40.4333 54.0286 41.8757 53.5149C42.6787 53.2192 43.527 53.0681 44.382 53.0684H65.3199C66.1749 53.0681 67.0233 53.2192 67.8263 53.5149C69.2583 54.0378 70.4949 54.9937 71.3669 56.2516C72.2389 57.5096 72.7036 59.0082 72.6974 60.5424Z" fill="#DA291C"/>
</g>
<defs>
<clipPath id="clip0_90_243">
<rect width="109" height="98" fill="white"/>
</clipPath>
</defs>
</svg>
