<svg width="104" height="104" viewBox="0 0 104 104" fill="none" xmlns="http://www.w3.org/2000/svg">
<path d="M51.907 29.9387V3" stroke="#DA291C" stroke-width="5.33333" stroke-linecap="round" stroke-linejoin="round"/>
<path d="M33.8404 33.914L17.5439 17.5811" stroke="#DA291C" stroke-width="5.33333" stroke-linecap="round" stroke-linejoin="round"/>
<path d="M69.979 33.914L86.2703 17.5811" stroke="#DA291C" stroke-width="5.33333" stroke-linecap="round" stroke-linejoin="round"/>
<path d="M51.907 74.0605V100.999" stroke="#DA291C" stroke-width="5.33333" stroke-linecap="round" stroke-linejoin="round"/>
<path d="M69.979 70.0801L86.2703 86.4182" stroke="#DA291C" stroke-width="5.33333" stroke-linecap="round" stroke-linejoin="round"/>
<path d="M33.8352 70.0801L17.5439 86.413" stroke="#DA291C" stroke-width="5.33333" stroke-linecap="round" stroke-linejoin="round"/>
<path d="M3 52.0322H14.2486" stroke="#DA291C" stroke-width="5.33333" stroke-linecap="round" stroke-linejoin="round"/>
<path d="M89.7513 52.0322H101" stroke="#DA291C" stroke-width="5.33333" stroke-linecap="round" stroke-linejoin="round"/>
<path d="M73.9438 52.0318C73.9438 64.2337 64.0777 74.125 51.9068 74.125C39.7359 74.125 29.8698 64.2337 29.8698 52.0318C29.8698 39.8298 39.7359 29.9385 51.9068 29.9385C64.0777 29.9385 73.9438 39.8298 73.9438 52.0318Z" stroke="black" stroke-width="5.33333" stroke-linecap="round" stroke-linejoin="round"/>
<path d="M51.9069 29.9385C37.351 29.9385 24.2395 37.3511 15.4363 48.617C13.8573 50.623 13.8573 53.4528 15.4363 55.4579C24.0649 66.4848 37.1065 74.1373 51.9131 74.1373C66.7188 74.1373 79.7202 66.5487 88.389 55.4579C89.968 53.4528 89.968 50.623 88.389 48.617C79.7665 37.5848 66.7127 29.9385 51.9069 29.9385Z" stroke="black" stroke-width="5.33333" stroke-miterlimit="10"/>
<path d="M65.4726 52.0319C65.4726 59.5434 59.3994 65.6321 51.907 65.6321C44.4146 65.6321 38.3414 59.5434 38.3414 52.0319C38.3414 44.5204 44.4146 38.4316 51.907 38.4316C59.3994 38.4316 65.4726 44.5204 65.4726 52.0319Z" fill="black"/>
<path d="M56.245 50.7188H53.7997V52.2886H56.245V50.7188Z" fill="white"/>
<path d="M50.6843 54.5367H53.1297V52.9668H50.6843V54.5367Z" fill="white"/>
<path d="M56.245 49.7902C56.245 49.0617 55.6556 48.4707 54.9289 48.4707H53.7997V50.0415H56.245V49.7902Z" fill="white"/>
<path d="M50.6843 48.4707V50.0415H53.1297V48.4707H50.6843Z" fill="white"/>
<path d="M47.5751 50.7188V52.2886H50.0144V50.7188H47.5751Z" fill="white"/>
<path d="M53.7997 54.5367H54.9289C55.6556 54.5367 56.245 53.9466 56.245 53.2172C56.245 53.212 56.245 53.2058 56.245 53.1997V52.9668H53.7997V54.5367Z" fill="white"/>
<path d="M47.5693 53.1997C47.5728 53.9299 48.1631 54.5192 48.8915 54.5192H50.0146V52.9668H47.5693V53.1997Z" fill="white"/>
<path d="M47.5693 49.7902V50.0415H50.0146V48.4707H48.8915C48.1631 48.4707 47.5728 49.0608 47.5693 49.7902Z" fill="white"/>
<path d="M51.9069 61.7971L51.4991 61.5992C48.5882 60.2097 47.2258 59.4155 46.0442 58.0969C44.9813 56.8343 44.398 55.2364 44.3962 53.5842V44.5781L45.2634 44.5133C47.4415 44.3399 49.5506 43.6693 51.4292 42.552L51.9069 42.2666L52.3898 42.552C54.2693 43.6701 56.3784 44.3408 58.5556 44.5133L59.4237 44.5781V53.5553C59.422 55.2075 58.8386 56.8055 57.7757 58.0672C56.6116 59.4155 55.1968 60.2097 52.3147 61.5694L51.9069 61.7971ZM45.3743 45.4887V53.5553C45.3726 54.9694 45.8695 56.3379 46.7778 57.4192C47.8433 58.6337 49.1646 59.3866 51.9069 60.7061C54.6492 59.3866 55.9828 58.6337 57.036 57.4192C57.946 56.3388 58.4456 54.9694 58.4456 53.5553V45.4887C56.1365 45.3039 53.8999 44.593 51.9069 43.4101C49.9157 44.593 47.6817 45.3031 45.3743 45.4887Z" fill="white"/>
</svg>
