<svg width="66" height="98" viewBox="0 0 66 98" fill="none" xmlns="http://www.w3.org/2000/svg">
<path d="M32.8596 98.0004C24.1447 98.0004 15.7868 94.5394 9.6244 88.3788C3.46206 82.2182 8.75138e-05 73.8626 8.75138e-05 65.1501V61.3384C-0.00261003 61.0235 0.0570795 60.7113 0.17571 60.4197C0.29434 60.128 0.469564 59.8628 0.69127 59.6392L12.1921 48.1473V22.5127C12.1629 21.3835 12.3601 20.2598 12.7722 19.2079C13.1842 18.1561 13.8028 17.1974 14.5914 16.3883C15.38 15.5793 16.3227 14.9363 17.3638 14.4973C18.4049 14.0582 19.5234 13.832 20.6534 13.832C21.7834 13.832 22.9019 14.0582 23.943 14.4973C24.9841 14.9363 25.9268 15.5793 26.7154 16.3883C27.504 17.1974 28.1225 18.1561 28.5346 19.2079C28.9467 20.2598 29.1439 21.3835 29.1147 22.5127V34.673L30.0212 34.3501C32.0268 33.632 34.23 33.7002 36.1874 34.5409C38.1447 35.3817 39.7107 36.9325 40.5702 38.8812L40.8535 39.5156L41.4767 39.2211C42.59 38.6987 43.8047 38.428 45.0346 38.4281C47.2757 38.4386 49.4219 39.3336 51.0061 40.9184C52.5903 42.5032 53.4841 44.6494 53.493 46.8899V48.3852L54.4052 48.0623C55.3138 47.7356 56.2723 47.5688 57.2379 47.5696C59.4819 47.574 61.6331 48.4656 63.222 50.0499C64.8109 51.6341 65.7086 53.7823 65.719 56.0257V65.1671C65.7145 73.8766 62.2506 82.2279 56.0887 88.3848C49.9268 94.5418 41.5715 98.0004 32.8596 98.0004ZM4.75338 62.3182V65.1501C4.75338 72.6023 7.71456 79.7492 12.9855 85.0186C18.2564 90.2881 25.4053 93.2485 32.8596 93.2485C40.3138 93.2485 47.4627 90.2881 52.7336 85.0186C58.0046 79.7492 60.9657 72.6023 60.9657 65.1501V56.0257C60.9657 55.0373 60.573 54.0893 59.8739 53.3904C59.1748 52.6915 58.2266 52.2989 57.2379 52.2989C56.2492 52.2989 55.301 52.6915 54.6019 53.3904C53.9028 54.0893 53.51 55.0373 53.51 56.0257V56.1106H48.7794V46.8899C48.7794 45.9015 48.3867 44.9536 47.6875 44.2546C46.9884 43.5557 46.0402 43.1631 45.0516 43.1631C44.0629 43.1631 43.1147 43.5557 42.4156 44.2546C41.7165 44.9536 41.3237 45.9015 41.3237 46.8899V56.1106H36.5874V42.3192C36.5874 41.8298 36.491 41.3451 36.3036 40.893C36.1163 40.4408 35.8417 40.03 35.4955 39.6839C35.1494 39.3379 34.7384 39.0633 34.2861 38.8761C33.8339 38.6888 33.3491 38.5924 32.8596 38.5924C32.37 38.5924 31.8853 38.6888 31.433 38.8761C30.9807 39.0633 30.5697 39.3379 30.2236 39.6839C29.8774 40.03 29.6028 40.4408 29.4155 40.893C29.2281 41.3451 29.1317 41.8298 29.1317 42.3192V56.1106H24.3954V22.5127C24.3954 21.5243 24.0027 20.5764 23.3035 19.8775C22.6044 19.1786 21.6562 18.7859 20.6676 18.7859C19.6789 18.7859 18.7307 19.1786 18.0316 19.8775C17.3325 20.5764 16.9397 21.5243 16.9397 22.5127V64.4875H12.2091V54.8589L4.75338 62.3182Z" fill="black"/>
<path d="M8.49822 33.7553V22.5125C8.63368 19.3738 9.9762 16.4086 12.2457 14.2355C14.5152 12.0624 17.5364 10.8493 20.6789 10.8493C23.8214 10.8493 26.8426 12.0624 29.1121 14.2355C31.3816 16.4086 32.7241 19.3738 32.8596 22.5125V30.1304C33.8983 30.1337 34.9322 30.2708 35.9359 30.5382C38.1801 27.5537 39.4988 23.9763 39.7286 20.2496C39.9584 16.5229 39.0892 12.8107 37.2287 9.57313C35.3682 6.3356 32.5982 3.71511 29.262 2.03649C25.9259 0.357877 22.1704 -0.305057 18.461 0.129871C14.7516 0.5648 11.2514 2.07846 8.39431 4.48323C5.53724 6.888 3.44892 10.0781 2.3882 13.6582C1.32748 17.2382 1.34101 21.0508 2.42712 24.6232C3.51323 28.1956 5.62415 31.3708 8.49822 33.7553Z" fill="#DA291C"/>
</svg>
